<svg width="86" height="137" viewBox="0 0 86 137" fill="none" xmlns="http://www.w3.org/2000/svg">
<path d="M5.41895 133.069L66 133.069C74.8366 133.069 82 125.905 82 117.069L82 5.65389" stroke="#FF5A00" stroke-width="1.5" stroke-linecap="round" stroke-dasharray="4 4"/>
<path d="M82.7197 4.45251L85.8474 9.4843C86.2222 10.0871 85.8661 10.8643 85.2194 10.9842C85.1057 11.0053 84.9898 10.9799 84.881 10.9407L82 9.90207L79.1189 10.9407C79.0101 10.9799 78.8942 11.0053 78.7805 10.9842C78.1429 10.8658 77.7852 10.1075 78.1402 9.50458L81.1034 4.47278C81.4694 3.85134 82.3392 3.84043 82.7197 4.45251Z" fill="#FF5A00"/>
<path d="M1.5 133C1.5 134.381 2.61929 135.5 4 135.5C5.38071 135.5 6.5 134.381 6.5 133C6.5 131.619 5.38071 130.5 4 130.5C2.61929 130.5 1.5 131.619 1.5 133Z" fill="white" stroke="#FF5A00" stroke-width="3"/>
</svg>
