<svg width="126" height="166" viewBox="0 0 126 166" fill="none" xmlns="http://www.w3.org/2000/svg">
<path d="M105.542 57.4692L86.2416 31.9384C84.2063 29.2437 81.0754 27.6667 77.7619 27.6667H47.9354C44.6219 27.6667 41.4911 29.2437 39.4557 31.9384L20.1549 57.4692C21.4921 77.8927 31.0298 94.9243 46.7378 101.808V101.802C51.6301 103.938 57.0273 105.133 62.8487 105.133C68.67 105.133 74.0672 103.938 78.9595 101.797V101.802C94.6676 94.9243 104.2 77.8927 105.542 57.4692ZM46.7378 71.9333C43.7734 71.9333 41.3675 69.4544 41.3675 66.4C41.3675 63.3456 43.7734 60.8667 46.7378 60.8667C49.7022 60.8667 52.1081 63.3456 52.1081 66.4C52.1081 69.4544 49.7022 71.9333 46.7378 71.9333ZM78.9595 71.9333C75.9951 71.9333 73.5892 69.4544 73.5892 66.4C73.5892 63.3456 75.9951 60.8667 78.9595 60.8667C81.9239 60.8667 84.3298 63.3456 84.3298 66.4C84.3298 69.4544 81.9239 71.9333 78.9595 71.9333ZM19.8864 48.8151V22.1333C19.8864 9.9102 29.5046 0 41.3675 0H84.3298C96.1927 0 105.811 9.9102 105.811 22.1333V48.8151L90.4788 28.5409C87.4284 24.4961 82.7348 22.1333 77.7619 22.1333H47.93C42.9571 22.1333 38.2635 24.4961 35.2132 28.5409L19.8864 48.8151ZM125.751 152.582L123.936 143.977C122.48 135.749 116.761 129.148 109.146 126.802L83.7122 117.251L79.0938 121.368C74.5773 125.413 68.7775 127.648 62.7627 127.648C56.7695 127.648 50.9911 125.43 46.4854 121.39L41.9099 117.318L16.7233 126.747C8.95254 129.154 3.21708 135.755 1.7671 143.988L0.177501 152.952C-1.02544 159.747 4.03873 166 10.7408 166H115.252C122.104 166 127.206 159.482 125.751 152.582ZM105.811 149.4C105.811 152.454 103.405 154.933 100.441 154.933H84.3298C81.3654 154.933 78.9595 152.454 78.9595 149.4V143.867C78.9595 140.812 81.3654 138.333 84.3298 138.333H100.441C103.405 138.333 105.811 140.812 105.811 143.867V149.4ZM62.8487 110.667C68.611 110.667 73.9974 109.643 78.9595 107.795V114.169L75.5762 117.19C68.4982 123.526 57.081 123.543 50.0083 117.213L46.7378 114.302V107.8C51.7 109.643 57.0864 110.667 62.8487 110.667ZM84.3298 143.867H100.441V149.4H84.3298V143.867Z" fill="url(#paint0_linear_1042_154)"/>
<defs>
<linearGradient id="paint0_linear_1042_154" x1="-32.7836" y1="20.3139" x2="96.595" y2="164.325" gradientUnits="userSpaceOnUse">
<stop stop-color="#FF5A00"/>
<stop offset="1" stop-color="#BC4606"/>
</linearGradient>
</defs>
</svg>
