<svg width="162" height="168" viewBox="0 0 162 168" fill="none" xmlns="http://www.w3.org/2000/svg">
<g clip-path="url(#clip0_1042_147)">
<path fill-rule="evenodd" clip-rule="evenodd" d="M152.04 67.0893C152.04 29.3235 122.273 0 85.68 0C49.0872 0 19.32 29.3235 19.32 65.371C8.29476 70.9462 0.360005 81.2094 0.360005 93.3871V112.065C0.360005 119.495 3.35635 126.621 8.68989 131.875C14.0234 137.129 21.2572 140.081 28.8 140.081H38.28C40.7943 140.081 43.2055 139.097 44.9834 137.345C46.7612 135.594 47.76 133.219 47.76 130.742V74.7097C47.76 72.2329 46.7612 69.8576 44.9834 68.1062C43.2055 66.3549 40.7943 65.371 38.28 65.371C38.28 52.9871 43.2739 41.1104 52.1631 32.3536C61.0524 23.5969 73.1087 18.6774 85.68 18.6774C98.2513 18.6774 110.308 23.5969 119.197 32.3536C128.086 41.1104 133.08 52.9871 133.08 65.371C130.566 65.371 128.154 66.3549 126.377 68.1062C124.599 69.8576 123.6 72.2329 123.6 74.7097V130.742C123.6 133.219 124.599 135.594 126.377 137.345C128.154 139.097 130.566 140.081 133.08 140.081V149.419H108.508C106.555 143.994 101.341 140.081 95.16 140.081H76.2C72.4286 140.081 68.8117 141.557 66.1449 144.184C63.4782 146.811 61.98 150.374 61.98 154.089C61.98 157.804 63.4782 161.367 66.1449 163.994C68.8117 166.621 72.4286 168.097 76.2 168.097H133.08C138.109 168.097 142.931 166.129 146.487 162.626C150.042 159.124 152.04 154.373 152.04 149.419V138.372C157.574 136.456 162.368 132.898 165.764 128.186C169.159 123.475 170.989 117.842 171 112.065V93.3871C170.99 87.6101 169.16 81.9785 165.765 77.2685C162.369 72.5586 157.574 69.0021 152.04 67.0893L-66 579Z" fill="url(#paint0_linear_1042_147)"/>
</g>
<defs>
<linearGradient id="paint0_linear_1042_147" x1="31.0368" y1="36.0886" x2="137.166" y2="171.914" gradientUnits="userSpaceOnUse">
<stop stop-color="#3C3C3C"/>
<stop offset="1" stop-color="#262626"/>
</linearGradient>
<clipPath id="clip0_1042_147">
<rect width="162" height="168" fill="white"/>
</clipPath>
</defs>
</svg>
