<svg width="205" height="125" viewBox="0 0 205 125" fill="none" xmlns="http://www.w3.org/2000/svg">
<path d="M186.671 22.106C159.595 -18.8453 118.806 9.64504 118.806 9.64504C116.16 11.4855 111.282 12.9987 107.968 13.0057L97.0426 13.0128C93.7283 13.0163 88.8505 11.5031 86.2089 9.66263C86.2089 9.66263 45.4162 -18.8348 18.3357 22.1166C-8.73719 63.0539 2.173 107.637 2.173 107.637C4.08438 118.553 10.3843 125.838 22.2731 124.923C34.1275 124.011 59.8586 95.5243 59.8586 95.5243C61.984 93.1771 66.4376 91.2592 69.7443 91.2592L135.244 91.2487C138.554 91.2487 143.004 93.1666 145.125 95.5138C145.125 95.5138 170.86 124.001 182.734 124.912C194.607 125.827 200.923 118.536 202.822 107.626C202.819 107.626 213.748 63.0504 186.671 22.106ZM77.8868 55.4386H63.8419V67.8997C63.8419 67.8997 60.8678 69.99 56.2652 69.9372C51.6702 69.8739 49.5906 67.6568 49.5906 67.6568V55.4422H36.3256C36.3256 55.4422 34.6704 53.8797 34.2269 49.7659C33.7911 45.6521 36.058 42.3266 36.058 42.3266H50.1067V29.3976C50.1067 29.3976 52.9967 27.9723 57.1521 28.0814C61.3112 28.2011 64.358 29.6404 64.358 29.6404L64.3006 42.3231H77.5656C77.5656 42.3231 79.8822 45.0609 80.0734 48.3688C80.2645 51.6803 77.8868 55.4386 77.8868 55.4386ZM142.308 69.6416C136.157 69.6416 131.199 65.0633 131.199 59.4082C131.199 53.7425 136.157 49.1747 142.308 49.1747C148.432 49.1747 153.428 53.7425 153.428 59.4082C153.428 65.0668 148.432 69.6416 142.308 69.6416ZM142.308 41.4855C136.157 41.4855 131.199 36.9108 131.199 31.2556C131.199 25.5899 136.157 21.0222 142.308 21.0222C148.432 21.0222 153.428 25.5899 153.428 31.2556C153.428 36.9143 148.432 41.4855 142.308 41.4855ZM169.993 56.5999C163.842 56.5999 158.884 52.0252 158.884 46.3665C158.884 40.7043 163.842 36.133 169.993 36.133C176.117 36.133 181.113 40.7043 181.113 46.3665C181.113 52.0252 176.117 56.5999 169.993 56.5999Z" fill="url(#paint0_linear_1042_151)"/>
<defs>
<linearGradient id="paint0_linear_1042_151" x1="-53.3385" y1="15.2966" x2="16.1337" y2="182.377" gradientUnits="userSpaceOnUse">
<stop stop-color="#414141"/>
<stop offset="1" stop-color="#262626"/>
</linearGradient>
</defs>
</svg>
