<?xml version="1.0" encoding="utf-8"?>
<!-- Generator: Adobe Illustrator 23.0.1, SVG Export Plug-In . SVG Version: 6.00 Build 0)  -->
<svg version="1.1" id="Слой_1" xmlns="http://www.w3.org/2000/svg" xmlns:xlink="http://www.w3.org/1999/xlink" x="0px" y="0px"
	 viewBox="0 0 403 153" style="enable-background:new 0 0 403 153;" xml:space="preserve">
<style type="text/css">
	.st0{fill:#FF5A00;}
</style>
<path d="M114.3,109c0,0.6,0.4,1,1,1h11.6c0.6,0,1-0.4,1-1V83.8c0-6.3,3.3-9.6,8.5-9.6s8.2,3.2,8.2,9.6V109c0,0.6,0.4,1,1,1h11.6
	c0.6,0,1-0.4,1-1V79.6c0-10.8-6-17.4-16.3-17.4c-6.9,0-10.9,3.6-14,7.5V51.5c0-0.6-0.4-1-1-1h-11.6c-0.6,0-1,0.4-1,1
	C114.3,51.5,114.3,109,114.3,109z"/>
<path d="M183.5,110.9c6.6,0,11.2-2.4,14.5-6v4.1c0,0.6,0.4,1,1,1h11.1c0.6,0,1-0.4,1-1V82.7c0-6.3-1.6-11.5-5.2-15
	c-3.4-3.3-8.8-5.3-16.2-5.3c-7.7,0-12.7,1.3-17.7,3.4c-0.5,0.2-0.7,0.7-0.6,1.2l2.8,8.3c0.2,0.5,0.8,0.8,1.3,0.6
	c4-1.4,7.5-2.2,12.3-2.2c6.8,0,10.3,3.1,10.3,8.6v0.8c-3.4-1.1-6.9-1.9-11.7-1.9c-11.3,0-19.3,4.7-19.3,15
	C167.1,105.8,174.5,110.9,183.5,110.9z M187.6,101.7c-4.4,0-7.4-2.1-7.4-5.7c0-4.4,3.6-6.7,9.4-6.7c3.3,0,6.3,0.7,8.7,1.8v2.4
	C198.2,98.2,193.9,101.7,187.6,101.7z"/>
<path d="M222.8,109c0,0.6,0.4,1,1,1h11.6c0.6,0,1-0.4,1-1V83.8c0-6.3,3.1-9.6,8.2-9.6c5.1,0,7.9,3.2,7.9,9.6V109c0,0.6,0.4,1,1,1
	h11.6c0.6,0,1-0.4,1-1V83.8c0-6.3,3.1-9.6,8.2-9.6s7.9,3.2,7.9,9.6V109c0,0.6,0.4,1,1,1h11.6c0.6,0,1-0.4,1-1V79.4
	c0-11.3-6.1-17.3-16.2-17.3c-6.5,0-11.5,2.6-15.7,7.4c-2.5-4.7-7.2-7.4-13.5-7.4c-6.9,0-11,3.6-14.1,7.5V64c0-0.6-0.4-1-1-1h-11.6
	c-0.6,0-1,0.4-1,1v45H222.8z"/>
<path d="M307.6,123c0,0.6,0.4,1,1,1h11.6c0.6,0,1-0.4,1-1v-19.2c3.2,3.8,7.7,7,14.9,7c11.3,0,21.8-8.6,21.8-24.3
	c0-15.9-10.6-24.5-21.8-24.5c-7.1,0-11.6,3.2-14.9,7.6V64c0-0.6-0.4-1-1-1h-11.6c-0.6,0-1,0.4-1,1V123z M332.6,99.5
	c-6.3,0-11.6-5.2-11.6-13c0-8,5.3-13.1,11.6-13.1s11.7,5.2,11.7,13C344.3,94.5,339,99.5,332.6,99.5z"/>
<path d="M384.7,110.9c10.4,0,18.3-4.7,18.3-15.2c0-8.8-7.8-11.9-14.5-14.1c-5.2-1.8-9.7-3-9.7-5.6c0-2,1.7-3.4,5-3.4
	s7.6,1.5,12.1,3.9c0.5,0.3,1.1,0.1,1.4-0.4l4.2-7.5c0.3-0.5,0.1-1-0.3-1.3c-5.1-3.1-11.3-4.9-17.1-4.9c-9.6,0-17.5,5.3-17.5,14.9
	c0,9.3,7.6,12.4,14.3,14.3c5.3,1.6,9.9,2.5,9.9,5.4c0,2.3-1.8,3.7-5.7,3.7c-4.2,0-9.3-1.7-14.2-5c-0.5-0.3-1.1-0.2-1.4,0.3l-4.7,7.1
	c-0.3,0.4-0.2,1,0.2,1.3C371.1,108.8,378.3,110.9,384.7,110.9z"/>
<path class="st0" d="M73.3,25.6c1.8-0.5,2.9-2.3,2.5-4.1L71.7,3.7c-0.5-2-2.5-3.3-4.6-2.8c-2,0.5-3.3,2.6-2.7,4.6l4.8,17.7
	C69.7,25,71.5,26.1,73.3,25.6z M107.5,6.7c0.5-2-0.7-4-2.7-4.5s-3.9,0.8-4.4,2.7l-3.9,16.7c-0.4,1.8,0.7,3.5,2.5,4
	c1.7,0.4,3.5-0.6,3.9-2.3L107.5,6.7z M86.4,24c1.8,0,3.3-1.4,3.3-3.2L90,7.1c0-2.1-1.6-3.8-3.7-3.8S82.6,5,82.6,7.1L83,20.7
	C83.1,22.6,84.6,24,86.4,24z M118.2,23c1-1.8,0.3-4-1.5-4.9s-4-0.1-4.9,1.7l-2.5,5.6c-0.7,1.6-0.1,3.6,1.5,4.4s3.6,0.2,4.4-1.4
	L118.2,23z M61.1,30.3c1.6-0.8,2.3-2.7,1.6-4.4l-0.9-2.2c-0.8-2-3.2-2.9-5.1-1.9c-1.8,1-2.5,3.2-1.5,5l1.1,2.1
	C57.3,30.6,59.4,31.2,61.1,30.3z M50.2,37.9c1.3-1.2,1.5-3.2,0.3-4.5l-9.2-10.5c-1.3-1.5-3.6-1.7-5.1-0.3c-1.5,1.4-1.6,3.7-0.1,5.2
	l9.7,10C47,39,49,39.1,50.2,37.9z M42.6,46.4c1-1.4,0.7-3.3-0.6-4.3L23.8,28.8c-1.5-1.1-3.7-0.8-4.8,0.7c-1.1,1.6-0.7,3.7,0.9,4.8
	l18.5,12.8C39.7,48.1,41.6,47.8,42.6,46.4z M36.9,56.2c0.7-1.5,0-3.3-1.5-4L4.9,38.4c-1.7-0.8-3.8-0.1-4.6,1.7s0.1,3.8,1.8,4.5
	l30.8,13.2C34.5,58.5,36.2,57.8,36.9,56.2z M33.4,67c0.3-1.6-0.6-3.2-2.1-3.6l-10.1-2.8c-1.9-0.5-3.9,0.6-4.3,2.5
	c-0.4,1.8,0.8,3.6,2.6,4l10.2,2.3C31.4,69.7,33.1,68.6,33.4,67z M32.2,78.3c0-1.7-1.3-3.1-3-3.1H6.3c-1.9,0-3.5,1.5-3.5,3.4
	S4.4,82,6.3,82l22.9-0.6C30.9,81.4,32.2,80,32.2,78.3z M33.4,89.7c-0.4-1.7-1.9-2.8-3.6-2.5L28,87.5c-1.8,0.3-3.1,2.1-2.7,3.9
	c0.4,1.9,2.4,3,4.3,2.4l1.7-0.5C32.8,92.9,33.7,91.3,33.4,89.7z M36.9,100.4c-0.7-1.5-2.4-2.2-3.9-1.6l-15.5,6.1
	c-1.8,0.7-2.7,2.8-1.9,4.6c0.8,1.7,2.8,2.5,4.5,1.7l15.2-6.6C36.9,103.7,37.6,101.9,36.9,100.4z M42.6,110.3c-1-1.4-2.9-1.7-4.3-0.7
	l-22.3,17c-1.5,1.1-1.8,3.2-0.7,4.7c1.1,1.6,3.4,1.8,4.9,0.6l21.9-17.5C43.3,113.4,43.6,111.6,42.6,110.3z M50.3,118.8
	c-1.3-1.2-3.3-1.1-4.6,0.1l-2.9,3.1c-1.4,1.4-1.3,3.7,0.2,5.1s3.9,1.1,5.1-0.5l2.6-3.3C51.8,121.9,51.6,119.9,50.3,118.8z M61,126.3
	c-1.6-0.9-3.7-0.3-4.6,1.3l-5.8,10.2c-1.1,1.9-0.4,4.2,1.5,5.2s4.2,0.2,5.1-1.7l5.3-10.5C63.3,129.1,62.6,127.1,61,126.3z
	 M115.9,136.4c1.9-1,2.5-3.3,1.4-5.1l-2.1-3.3c-0.9-1.5-2.8-1.9-4.3-1.2c-1.6,0.8-2.3,2.8-1.5,4.5l1.7,3.5
	C112,136.5,114.1,137.3,115.9,136.4z M73.3,131c-1.8-0.4-3.6,0.5-4.2,2.3l-0.8,2.4c-0.7,2,0.5,4.2,2.6,4.8c2.1,0.5,4.1-0.8,4.5-2.9
	l0.5-2.5C76.3,133.2,75.1,131.5,73.3,131z M105.3,152.3c2.1-0.5,3.3-2.7,2.6-4.8l-4.9-14.3c-0.5-1.6-2.2-2.5-3.9-2.1
	c-1.8,0.4-2.9,2.3-2.4,4.1l4.3,14.5C101.5,151.6,103.4,152.7,105.3,152.3z M89.7,135.9c0-1.8-1.5-3.3-3.3-3.3s-3.3,1.5-3.3,3.3v13.5
	c0,1.8,1.5,3.3,3.3,3.3c1.9,0,3.4-1.5,3.4-3.3L89.7,135.9L89.7,135.9z"/>
<path d="M87,57.9c-11,0-20,9-19.9,20.1c0,11,9,20,20.1,19.9c3.8,0,7.4-1.1,10.4-2.9c0.5-0.3,1.2-0.2,1.4,0.4
	c1.2,2.2,3.4,6.1,4.8,8.8c0.2,0.5,0.1,1-0.4,1.3c-4.8,2.8-10.3,4.5-16.2,4.5c-17.6-0.1-32-14.3-32.1-32c0-17.7,14.2-32.1,31.9-32.1
	c6.4,0,12.4,1.9,17.5,5.1c0.4,0.3,0.6,0.8,0.3,1.3c-1.7,3.2-3.4,6.4-4.9,8.8c-0.3,0.5-1,0.6-1.5,0.3C95.2,59.2,91.3,57.9,87,57.9z"
	/>
</svg>
