<svg width="180" height="157" viewBox="0 0 180 157" fill="none" xmlns="http://www.w3.org/2000/svg">
<path d="M121.945 45.1452C108.467 36.8383 86.6938 36.8383 73.2951 45.1452C59.8964 53.4522 59.9761 66.9564 73.4546 75.2634C86.933 83.5703 108.706 83.5703 122.105 75.2634C135.503 66.9138 135.424 53.4522 121.945 45.1452ZM115.764 58.2234C114.608 58.6068 113.451 59.0328 112.295 59.4162C111.577 59.6292 111.138 59.6718 110.819 59.5014C110.66 59.3736 110.5 59.2032 110.341 58.9476C109.583 57.627 108.427 56.4768 106.872 55.5396C106.672 55.4118 106.433 55.284 106.194 55.1562C105.675 54.858 105.197 54.645 104.559 54.4746C102.326 53.9208 100.332 54.8154 100.611 56.3064C100.73 57.0732 101.129 57.7548 101.608 58.479C102.405 59.6718 103.283 60.8646 103.841 62.1426C105.715 66.147 101.648 70.1088 95.1078 70.4922C92.7551 70.62 90.522 70.3218 88.4484 69.5976C87.5312 69.2994 86.8533 69.2994 86.1754 69.8106C85.4975 70.2792 84.7398 70.7052 84.022 71.1312C83.384 71.5146 82.7061 71.5572 82.068 71.1738C81.5895 70.9182 81.1509 70.62 80.6723 70.3644C80.3533 70.1514 80.0343 69.981 79.7153 69.768C79.0374 69.342 79.1171 68.916 79.7551 68.49C80.2736 68.1492 80.792 67.851 81.2705 67.5102C82.4269 66.786 82.4269 66.7434 81.4699 65.934C80.2736 64.9116 79.1969 63.8466 78.519 62.6538C78.0006 61.7166 78.1202 61.5036 79.5159 60.9924C80.5527 60.6516 81.5496 60.2682 82.5864 59.9274C83.3441 59.6718 83.7827 59.6292 84.1017 59.7996C84.3011 59.9274 84.4208 60.0978 84.5803 60.396C85.2582 61.7592 86.4146 62.952 87.8103 64.1022C88.0496 64.3152 88.3287 64.4856 88.568 64.656C89.3257 65.1246 90.2029 65.4654 91.1999 65.721C93.7919 66.36 96.1048 65.2524 95.8655 63.5058C95.7857 62.9094 95.5066 62.3982 95.1477 61.8444C94.2704 60.4386 93.114 59.118 92.5158 57.627C91.5588 55.2414 91.9974 53.0688 95.068 51.3648C98.5771 49.4478 102.485 49.32 106.632 50.5128C108.347 51.024 108.307 51.024 109.623 50.2146C110.062 49.9164 110.5 49.6608 110.939 49.4052C111.936 48.8088 112.295 48.8088 113.292 49.4052C113.611 49.5756 113.89 49.7886 114.209 49.959C116.322 51.237 116.322 51.237 114.249 52.5576C112.773 53.4522 112.773 53.4522 114.01 54.5172C114.967 55.3266 115.724 56.1786 116.283 57.1158C116.721 57.5844 116.562 57.9678 115.764 58.2234ZM139.93 86.2541C136.221 88.5545 130.2 88.5545 126.451 86.2541C122.743 83.9537 122.703 80.2049 126.411 77.9045C130.12 75.6041 136.141 75.6041 139.89 77.9045C143.638 80.2049 143.678 83.9537 139.93 86.2541ZM68.9485 42.4614C65.2399 44.7618 59.2184 44.7618 55.47 42.4614C51.7216 40.161 51.7216 36.4123 55.4301 34.1119C59.1387 31.8115 65.1601 31.8115 68.9086 34.1119C72.6172 36.4123 72.657 40.161 68.9485 42.4614ZM190.374 68.4048L84.1017 2.84354C77.9607 -0.947848 67.9914 -0.947848 61.8902 2.84354L4.90584 38.2015C-1.19535 41.9928 -1.15547 48.1698 4.9856 51.9612L111.258 117.522C117.399 121.314 127.368 121.314 133.47 117.522L190.414 82.1645C196.555 78.3731 196.515 72.1962 190.374 68.4048ZM134.626 105.041C133.948 104.359 133.151 103.72 132.194 103.124C125.973 99.2897 115.884 99.2897 109.703 103.124C109.224 103.422 108.826 103.72 108.387 104.061L25.8812 53.154C26.6787 52.8132 27.4364 52.4298 28.1542 52.0038C34.3351 48.1698 34.2953 41.9502 28.0744 38.1162C27.3965 37.6902 26.6787 37.3069 25.9211 37.0087L59.9362 15.8791C60.4546 16.3477 61.0528 16.7737 61.7307 17.1997C67.9515 21.0337 78.0404 21.0337 84.2214 17.1997C84.9392 16.7737 85.5373 16.3051 86.0956 15.7939L168.88 66.8286C167.764 67.2546 166.767 67.7232 165.81 68.3196C159.629 72.1536 159.629 78.4157 165.89 82.2497C166.847 82.8461 167.923 83.3147 169.04 83.7407L134.626 105.041ZM2.1942 65.082C4.90584 63.591 9.09294 63.804 11.685 65.4228L122.783 133.923L182.837 96.6059C185.429 94.9871 189.696 94.9871 192.328 96.6059C194.96 98.2247 194.96 100.866 192.368 102.485L128.525 142.103C125.414 144.062 120.31 144.062 117.16 142.103L114.927 140.739L113.372 139.76L1.99482 71.0886C-0.716826 69.4272 -0.676949 66.6582 2.1942 65.082ZM192.448 123.912L128.605 163.53C125.494 165.49 120.39 165.49 117.24 163.53L115.046 162.167L113.451 161.187L2.07457 92.5163C-0.637072 90.8549 -0.557318 88.0859 2.31383 86.5097C4.9856 85.0187 9.21257 85.2317 11.8046 86.8505L122.862 155.351L182.917 118.076C185.549 116.457 189.776 116.457 192.408 118.076C195.04 119.652 195.08 122.294 192.448 123.912Z" fill="url(#paint0_linear_274_897)"/>
<defs>
<linearGradient id="paint0_linear_274_897" x1="-50.7366" y1="20.1915" x2="61.2399" y2="214.257" gradientUnits="userSpaceOnUse">
<stop stop-color="#414141"/>
<stop offset="1" stop-color="#262626"/>
</linearGradient>
</defs>
</svg>
