<svg width="185" height="180" viewBox="0 0 185 180" fill="none" xmlns="http://www.w3.org/2000/svg">
<g clip-path="url(#clip0_1041_47)">
<path d="M126.945 67.6452C113.467 59.3383 91.6938 59.3383 78.2951 67.6452C64.8964 75.9522 64.9761 89.4564 78.4546 97.7634C91.933 106.07 113.706 106.07 127.105 97.7634C140.503 89.4138 140.424 75.9522 126.945 67.6452ZM120.764 80.7234C119.608 81.1068 118.451 81.5328 117.295 81.9162C116.577 82.1292 116.138 82.1718 115.819 82.0014C115.66 81.8736 115.5 81.7032 115.341 81.4476C114.583 80.127 113.427 78.9768 111.872 78.0396C111.672 77.9118 111.433 77.784 111.194 77.6562C110.675 77.358 110.197 77.145 109.559 76.9746C107.326 76.4208 105.332 77.3154 105.611 78.8064C105.73 79.5732 106.129 80.2548 106.608 80.979C107.405 82.1718 108.283 83.3646 108.841 84.6426C110.715 88.647 106.648 92.6088 100.108 92.9922C97.7551 93.12 95.522 92.8218 93.4484 92.0976C92.5312 91.7994 91.8533 91.7994 91.1754 92.3106C90.4975 92.7792 89.7398 93.2052 89.022 93.6312C88.384 94.0146 87.7061 94.0572 87.068 93.6738C86.5895 93.4182 86.1509 93.12 85.6723 92.8644C85.3533 92.6514 85.0343 92.481 84.7153 92.268C84.0374 91.842 84.1171 91.416 84.7551 90.99C85.2736 90.6492 85.792 90.351 86.2705 90.0102C87.4269 89.286 87.4269 89.2434 86.4699 88.434C85.2736 87.4116 84.1969 86.3466 83.519 85.1538C83.0006 84.2166 83.1202 84.0036 84.5159 83.4924C85.5527 83.1516 86.5496 82.7682 87.5864 82.4274C88.3441 82.1718 88.7827 82.1292 89.1017 82.2996C89.3011 82.4274 89.4208 82.5978 89.5803 82.896C90.2582 84.2592 91.4146 85.452 92.8103 86.6022C93.0496 86.8152 93.3287 86.9856 93.568 87.156C94.3257 87.6246 95.2029 87.9654 96.1999 88.221C98.7919 88.86 101.105 87.7524 100.865 86.0058C100.786 85.4094 100.507 84.8982 100.148 84.3444C99.2704 82.9386 98.114 81.618 97.5158 80.127C96.5588 77.7414 96.9974 75.5688 100.068 73.8648C103.577 71.9478 107.485 71.82 111.632 73.0128C113.347 73.524 113.307 73.524 114.623 72.7146C115.062 72.4164 115.5 72.1608 115.939 71.9052C116.936 71.3088 117.295 71.3088 118.292 71.9052C118.611 72.0756 118.89 72.2886 119.209 72.459C121.322 73.737 121.322 73.737 119.249 75.0576C117.773 75.9522 117.773 75.9522 119.01 77.0172C119.967 77.8266 120.724 78.6786 121.283 79.6158C121.721 80.0844 121.562 80.4678 120.764 80.7234ZM144.93 108.754C141.221 111.055 135.2 111.055 131.451 108.754C127.743 106.454 127.703 102.705 131.411 100.405C135.12 98.1041 141.141 98.1041 144.89 100.405C148.638 102.705 148.678 106.454 144.93 108.754ZM73.9485 64.9614C70.2399 67.2618 64.2184 67.2618 60.47 64.9614C56.7216 62.661 56.7216 58.9123 60.4301 56.6119C64.1387 54.3115 70.1601 54.3115 73.9086 56.6119C77.6172 58.9123 77.657 62.661 73.9485 64.9614ZM195.374 90.9048L89.1017 25.3435C82.9607 21.5522 72.9914 21.5522 66.8902 25.3435L9.90584 60.7015C3.80465 64.4928 3.84453 70.6698 9.9856 74.4612L116.258 140.022C122.399 143.814 132.368 143.814 138.47 140.022L195.414 104.665C201.555 100.873 201.515 94.6962 195.374 90.9048ZM139.626 127.541C138.948 126.859 138.151 126.22 137.194 125.624C130.973 121.79 120.884 121.79 114.703 125.624C114.224 125.922 113.826 126.22 113.387 126.561L30.8812 75.654C31.6787 75.3132 32.4364 74.9298 33.1542 74.5038C39.3351 70.6698 39.2953 64.4502 33.0744 60.6162C32.3965 60.1902 31.6787 59.8069 30.9211 59.5087L64.9362 38.3791C65.4546 38.8477 66.0528 39.2737 66.7307 39.6997C72.9515 43.5337 83.0404 43.5337 89.2214 39.6997C89.9392 39.2737 90.5373 38.8051 91.0956 38.2939L173.88 89.3286C172.764 89.7546 171.767 90.2232 170.81 90.8196C164.629 94.6536 164.629 100.916 170.89 104.75C171.847 105.346 172.923 105.815 174.04 106.241L139.626 127.541ZM7.1942 87.582C9.90584 86.091 14.0929 86.304 16.685 87.9228L127.783 156.423L187.837 119.106C190.429 117.487 194.696 117.487 197.328 119.106C199.96 120.725 199.96 123.366 197.368 124.985L133.525 164.603C130.414 166.562 125.31 166.562 122.16 164.603L119.927 163.239L118.372 162.26L6.99482 93.5886C4.28317 91.9272 4.32305 89.1582 7.1942 87.582ZM197.448 146.412L133.605 186.03C130.494 187.99 125.39 187.99 122.24 186.03L120.046 184.667L118.451 183.687L7.07457 115.016C4.36293 113.355 4.44268 110.586 7.31383 109.01C9.9856 107.519 14.2126 107.732 16.8046 109.351L127.862 177.851L187.917 140.576C190.549 138.957 194.776 138.957 197.408 140.576C200.04 142.152 200.08 144.794 197.448 146.412Z" fill="url(#paint0_linear_1041_47)"/>
</g>
<defs>
<linearGradient id="paint0_linear_1041_47" x1="21.7649" y1="60.2345" x2="166.987" y2="174.818" gradientUnits="userSpaceOnUse">
<stop stop-color="#FF5A00"/>
<stop offset="1" stop-color="#BC4606"/>
</linearGradient>
<clipPath id="clip0_1041_47">
<rect y="0.5" width="186" height="179" rx="10" fill="white"/>
</clipPath>
</defs>
</svg>
