<svg width="396" height="70" viewBox="0 0 396 70" fill="none" xmlns="http://www.w3.org/2000/svg">
<path opacity="0.2" d="M15.64 24.7656V25.7656H16.64V24.7656H15.64ZM15.64 20.2656H16.64V19.2656H15.64V20.2656ZM5.488 20.2656H4.488V21.2656H5.488V20.2656ZM5.488 0.753623H6.488V-0.246377H5.488V0.753623ZM0.376 0.753623V-0.246377H-0.624V0.753623H0.376ZM0.376 24.7656H-0.624V25.7656H0.376V24.7656ZM16.64 24.7656V20.2656H14.64V24.7656H16.64ZM15.64 19.2656H5.488V21.2656H15.64V19.2656ZM6.488 20.2656V0.753623H4.488V20.2656H6.488ZM5.488 -0.246377H0.376V1.75362H5.488V-0.246377ZM-0.624 0.753623V24.7656H1.376V0.753623H-0.624ZM0.376 25.7656H15.64V23.7656H0.376V25.7656ZM36.2118 24.7656V25.7656H37.2118V24.7656H36.2118ZM36.2118 20.2656H37.2118V19.2656H36.2118V20.2656ZM24.3318 20.2656H23.3318V21.2656H24.3318V20.2656ZM24.3318 14.8296V13.8296H23.3318V14.8296H24.3318ZM35.9598 14.8296V15.8296H36.9598V14.8296H35.9598ZM35.9598 10.3296H36.9598V9.32962H35.9598V10.3296ZM24.3318 10.3296H23.3318V11.3296H24.3318V10.3296ZM24.3318 5.25362V4.25362H23.3318V5.25362H24.3318ZM36.2118 5.25362V6.25362H37.2118V5.25362H36.2118ZM36.2118 0.753623H37.2118V-0.246377H36.2118V0.753623ZM19.2197 0.753623V-0.246377H18.2197V0.753623H19.2197ZM19.2197 24.7656H18.2197V25.7656H19.2197V24.7656ZM37.2118 24.7656V20.2656H35.2118V24.7656H37.2118ZM36.2118 19.2656H24.3318V21.2656H36.2118V19.2656ZM25.3318 20.2656V14.8296H23.3318V20.2656H25.3318ZM24.3318 15.8296H35.9598V13.8296H24.3318V15.8296ZM36.9598 14.8296V10.3296H34.9598V14.8296H36.9598ZM35.9598 9.32962H24.3318V11.3296H35.9598V9.32962ZM25.3318 10.3296V5.25362H23.3318V10.3296H25.3318ZM24.3318 6.25362H36.2118V4.25362H24.3318V6.25362ZM37.2118 5.25362V0.753623H35.2118V5.25362H37.2118ZM36.2118 -0.246377H19.2197V1.75362H36.2118V-0.246377ZM18.2197 0.753623V24.7656H20.2197V0.753623H18.2197ZM19.2197 25.7656H36.2118V23.7656H19.2197V25.7656ZM62.6 24.7656V25.7656H64.057L63.5332 24.4061L62.6 24.7656ZM53.348 0.753623L54.2812 0.394082L54.0344 -0.246377H53.348V0.753623ZM46.94 0.753623V-0.246377H46.2546L46.0074 0.392864L46.94 0.753623ZM37.652 24.7656L36.7194 24.4049L36.193 25.7656H37.652V24.7656ZM43.484 24.7656V25.7656H44.1792L44.4214 25.114L43.484 24.7656ZM44.996 20.6976V19.6976H44.3009L44.0587 20.3492L44.996 20.6976ZM55.292 20.6976L56.2321 20.3565L55.993 19.6976H55.292V20.6976ZM56.768 24.7656L55.828 25.1067L56.0671 25.7656H56.768V24.7656ZM53.888 16.1976V17.1976H55.314L54.8282 15.8569L53.888 16.1976ZM46.4 16.1976L45.4599 15.8569L44.974 17.1976H46.4V16.1976ZM50.144 5.86562L51.0842 5.52493L50.144 2.93041L49.2039 5.52493L50.144 5.86562ZM63.5332 24.4061L54.2812 0.394082L52.4149 1.11316L61.6669 25.1252L63.5332 24.4061ZM53.348 -0.246377H46.94V1.75362H53.348V-0.246377ZM46.0074 0.392864L36.7194 24.4049L38.5847 25.1264L47.8727 1.11438L46.0074 0.392864ZM37.652 25.7656H43.484V23.7656H37.652V25.7656ZM44.4214 25.114L45.9334 21.046L44.0587 20.3492L42.5467 24.4172L44.4214 25.114ZM44.996 21.6976H55.292V19.6976H44.996V21.6976ZM54.352 21.0387L55.828 25.1067L57.7081 24.4245L56.2321 20.3565L54.352 21.0387ZM56.768 25.7656H62.6V23.7656H56.768V25.7656ZM53.888 15.1976H46.4V17.1976H53.888V15.1976ZM47.3402 16.5383L51.0842 6.20631L49.2039 5.52493L45.4599 15.8569L47.3402 16.5383ZM49.2039 6.20631L52.9479 16.5383L54.8282 15.8569L51.0842 5.52493L49.2039 6.20631ZM84.2574 24.7656V25.7656H86.0093L85.1185 24.2571L84.2574 24.7656ZM78.8574 15.6216L78.6276 14.6484L77.3056 14.9605L77.9963 16.1301L78.8574 15.6216ZM64.8174 0.753623V-0.246377H63.8174V0.753623H64.8174ZM64.8174 24.7656H63.8174V25.7656H64.8174V24.7656ZM69.9294 24.7656V25.7656H70.9294V24.7656H69.9294ZM69.9294 16.2336V15.2336H68.9294V16.2336H69.9294ZM73.6734 16.2336L74.5486 15.7499L74.2633 15.2336H73.6734V16.2336ZM78.3894 24.7656L77.5142 25.2494L77.7996 25.7656H78.3894V24.7656ZM69.9294 11.7336H68.9294V12.7336H69.9294V11.7336ZM69.9294 5.25362V4.25362H68.9294V5.25362H69.9294ZM85.1185 24.2571L79.7185 15.1131L77.9963 16.1301L83.3963 25.2741L85.1185 24.2571ZM79.0872 16.5949C82.0784 15.8886 85.1134 13.2569 85.1134 8.49362H83.1134C83.1134 12.2264 80.8204 14.1306 78.6276 14.6484L79.0872 16.5949ZM85.1134 8.49362C85.1134 6.02863 84.2645 3.82648 82.6616 2.23908C81.0573 0.650435 78.7752 -0.246377 76.0494 -0.246377V1.75362C78.3276 1.75362 80.0775 2.49481 81.2543 3.66017C82.4323 4.82677 83.1134 6.49461 83.1134 8.49362H85.1134ZM76.0494 -0.246377H64.8174V1.75362H76.0494V-0.246377ZM63.8174 0.753623V24.7656H65.8174V0.753623H63.8174ZM64.8174 25.7656H69.9294V23.7656H64.8174V25.7656ZM70.9294 24.7656V16.2336H68.9294V24.7656H70.9294ZM69.9294 17.2336H73.6734V15.2336H69.9294V17.2336ZM72.7982 16.7174L77.5142 25.2494L79.2646 24.2819L74.5486 15.7499L72.7982 16.7174ZM78.3894 25.7656H84.2574V23.7656H78.3894V25.7656ZM75.2934 10.7336H69.9294V12.7336H75.2934V10.7336ZM70.9294 11.7336V5.25362H68.9294V11.7336H70.9294ZM69.9294 6.25362H75.2934V4.25362H69.9294V6.25362ZM75.2934 6.25362C76.1261 6.25362 76.779 6.50131 77.2078 6.87314C77.6217 7.23208 77.8934 7.76133 77.8934 8.49362H79.8934C79.8934 7.20992 79.3911 6.11917 78.518 5.36211C77.6598 4.61794 76.5127 4.25362 75.2934 4.25362V6.25362ZM77.8934 8.49362C77.8934 9.22592 77.6217 9.75517 77.2078 10.1141C76.779 10.4859 76.1261 10.7336 75.2934 10.7336V12.7336C76.5127 12.7336 77.6598 12.3693 78.518 11.6251C79.3911 10.8681 79.8934 9.77733 79.8934 8.49362H77.8934ZM109.442 24.7656V25.7656H110.442V24.7656H109.442ZM109.442 0.753623H110.442V-0.246377H109.442V0.753623ZM104.33 0.753623V-0.246377H103.33V0.753623H104.33ZM104.33 15.8376L103.525 16.4312L105.33 18.8785V15.8376H104.33ZM93.2062 0.753623L94.011 0.160096L93.7113 -0.246377H93.2062V0.753623ZM87.9502 0.753623V-0.246377H86.9502V0.753623H87.9502ZM87.9502 24.7656H86.9502V25.7656H87.9502V24.7656ZM93.0622 24.7656V25.7656H94.0622V24.7656H93.0622ZM93.0622 9.10562L93.8695 8.51547L92.0622 6.04323V9.10562H93.0622ZM104.51 24.7656L103.703 25.3558L104.003 25.7656H104.51V24.7656ZM110.442 24.7656V0.753623H108.442V24.7656H110.442ZM109.442 -0.246377H104.33V1.75362H109.442V-0.246377ZM103.33 0.753623V15.8376H105.33V0.753623H103.33ZM105.135 15.2441L94.011 0.160096L92.4014 1.34715L103.525 16.4312L105.135 15.2441ZM93.2062 -0.246377H87.9502V1.75362H93.2062V-0.246377ZM86.9502 0.753623V24.7656H88.9502V0.753623H86.9502ZM87.9502 25.7656H93.0622V23.7656H87.9502V25.7656ZM94.0622 24.7656V9.10562H92.0622V24.7656H94.0622ZM92.2549 9.69578L103.703 25.3558L105.318 24.1755L93.8695 8.51547L92.2549 9.69578ZM104.51 25.7656H109.442V23.7656H104.51V25.7656ZM128.5 24.7656V25.7656H129.5V24.7656H128.5ZM128.5 14.8296V13.8296H127.5V14.8296H128.5ZM140.128 14.8296V15.8296H141.128V14.8296H140.128ZM140.128 10.3296H141.128V9.32962H140.128V10.3296ZM128.5 10.3296H127.5V11.3296H128.5V10.3296ZM128.5 5.25362V4.25362H127.5V5.25362H128.5ZM140.38 5.25362V6.25362H141.38V5.25362H140.38ZM140.38 0.753623H141.38V-0.246377H140.38V0.753623ZM123.388 0.753623V-0.246377H122.388V0.753623H123.388ZM123.388 24.7656H122.388V25.7656H123.388V24.7656ZM129.5 24.7656V14.8296H127.5V24.7656H129.5ZM128.5 15.8296H140.128V13.8296H128.5V15.8296ZM141.128 14.8296V10.3296H139.128V14.8296H141.128ZM140.128 9.32962H128.5V11.3296H140.128V9.32962ZM129.5 10.3296V5.25362H127.5V10.3296H129.5ZM128.5 6.25362H140.38V4.25362H128.5V6.25362ZM141.38 5.25362V0.753623H139.38V5.25362H141.38ZM140.38 -0.246377H123.388V1.75362H140.38V-0.246377ZM122.388 0.753623V24.7656H124.388V0.753623H122.388ZM123.388 25.7656H128.5V23.7656H123.388V25.7656ZM163.394 24.7656V25.7656H165.146L164.255 24.2571L163.394 24.7656ZM157.994 15.6216L157.764 14.6484L156.442 14.9605L157.133 16.1301L157.994 15.6216ZM143.954 0.753623V-0.246377H142.954V0.753623H143.954ZM143.954 24.7656H142.954V25.7656H143.954V24.7656ZM149.066 24.7656V25.7656H150.066V24.7656H149.066ZM149.066 16.2336V15.2336H148.066V16.2336H149.066ZM152.81 16.2336L153.685 15.7499L153.4 15.2336H152.81V16.2336ZM157.526 24.7656L156.651 25.2494L156.936 25.7656H157.526V24.7656ZM149.066 11.7336H148.066V12.7336H149.066V11.7336ZM149.066 5.25362V4.25362H148.066V5.25362H149.066ZM164.255 24.2571L158.855 15.1131L157.133 16.1301L162.533 25.2741L164.255 24.2571ZM158.224 16.5949C161.215 15.8886 164.25 13.2569 164.25 8.49362H162.25C162.25 12.2264 159.957 14.1306 157.764 14.6484L158.224 16.5949ZM164.25 8.49362C164.25 6.02863 163.401 3.82648 161.798 2.23908C160.194 0.650435 157.912 -0.246377 155.186 -0.246377V1.75362C157.464 1.75362 159.214 2.49481 160.391 3.66017C161.569 4.82677 162.25 6.49461 162.25 8.49362H164.25ZM155.186 -0.246377H143.954V1.75362H155.186V-0.246377ZM142.954 0.753623V24.7656H144.954V0.753623H142.954ZM143.954 25.7656H149.066V23.7656H143.954V25.7656ZM150.066 24.7656V16.2336H148.066V24.7656H150.066ZM149.066 17.2336H152.81V15.2336H149.066V17.2336ZM151.935 16.7174L156.651 25.2494L158.401 24.2819L153.685 15.7499L151.935 16.7174ZM157.526 25.7656H163.394V23.7656H157.526V25.7656ZM154.43 10.7336H149.066V12.7336H154.43V10.7336ZM150.066 11.7336V5.25362H148.066V11.7336H150.066ZM149.066 6.25362H154.43V4.25362H149.066V6.25362ZM154.43 6.25362C155.263 6.25362 155.916 6.50131 156.344 6.87314C156.758 7.23208 157.03 7.76133 157.03 8.49362H159.03C159.03 7.20992 158.528 6.11917 157.655 5.36211C156.797 4.61794 155.649 4.25362 154.43 4.25362V6.25362ZM157.03 8.49362C157.03 9.22592 156.758 9.75517 156.344 10.1141C155.916 10.4859 155.263 10.7336 154.43 10.7336V12.7336C155.649 12.7336 156.797 12.3693 157.655 11.6251C158.528 10.8681 159.03 9.77733 159.03 8.49362H157.03ZM178.463 26.1976C186.274 26.1976 192.027 20.5793 192.027 12.7776H190.027C190.027 19.448 185.196 24.1976 178.463 24.1976V26.1976ZM192.027 12.7776C192.027 4.97599 186.274 -0.642376 178.463 -0.642376V1.35762C185.196 1.35762 190.027 6.10726 190.027 12.7776H192.027ZM178.463 -0.642376C170.686 -0.642376 164.935 4.97788 164.935 12.7776H166.935C166.935 6.10537 171.768 1.35762 178.463 1.35762V-0.642376ZM164.935 12.7776C164.935 20.5774 170.686 26.1976 178.463 26.1976V24.1976C171.768 24.1976 166.935 19.4499 166.935 12.7776H164.935ZM178.463 19.6616C176.523 19.6616 174.98 18.9205 173.912 17.7268C172.834 16.5225 172.191 14.7999 172.191 12.7776H170.191C170.191 15.2193 170.97 17.4387 172.421 19.0605C173.882 20.6928 175.974 21.6616 178.463 21.6616V19.6616ZM172.191 12.7776C172.191 10.7358 172.835 9.01444 173.911 7.81617C174.977 6.62822 176.52 5.89362 178.463 5.89362V3.89362C175.978 3.89362 173.885 4.85103 172.422 6.48008C170.969 8.09881 170.191 10.3194 170.191 12.7776H172.191ZM178.463 5.89362C180.406 5.89362 181.96 6.62882 183.036 7.81879C184.12 9.01818 184.771 10.7391 184.771 12.7776H186.771C186.771 10.3161 185.982 8.09507 184.519 6.47746C183.048 4.85043 180.947 3.89362 178.463 3.89362V5.89362ZM184.771 12.7776C184.771 14.7966 184.121 16.5188 183.035 17.7241C181.957 18.9199 180.403 19.6616 178.463 19.6616V21.6616C180.951 21.6616 183.051 20.6934 184.52 19.0631C185.981 17.4425 186.771 15.2226 186.771 12.7776H184.771ZM220.642 24.7656V25.7656H221.642V24.7656H220.642ZM220.642 0.753623H221.642V-0.246377H220.642V0.753623ZM213.442 0.753623V-0.246377H212.766L212.514 0.380645L213.442 0.753623ZM207.61 15.2616L206.682 15.6346L207.61 17.9427L208.538 15.6346L207.61 15.2616ZM201.778 0.753623L202.706 0.380645L202.454 -0.246377H201.778V0.753623ZM194.614 0.753623V-0.246377H193.614V0.753623H194.614ZM194.614 24.7656H193.614V25.7656H194.614V24.7656ZM199.726 24.7656V25.7656H200.726V24.7656H199.726ZM199.726 7.95362L200.654 7.58018L198.726 7.95362H199.726ZM206.494 24.7656L205.567 25.1391L205.819 25.7656H206.494V24.7656ZM208.726 24.7656V25.7656H209.402L209.654 25.1391L208.726 24.7656ZM215.494 7.95362H216.494L214.567 7.58018L215.494 7.95362ZM215.494 24.7656H214.494V25.7656H215.494V24.7656ZM221.642 24.7656V0.753623H219.642V24.7656H221.642ZM220.642 -0.246377H213.442V1.75362H220.642V-0.246377ZM212.514 0.380645L206.682 14.8886L208.538 15.6346L214.37 1.1266L212.514 0.380645ZM208.538 14.8886L202.706 0.380645L200.85 1.1266L206.682 15.6346L208.538 14.8886ZM201.778 -0.246377H194.614V1.75362H201.778V-0.246377ZM193.614 0.753623V24.7656H195.614V0.753623H193.614ZM194.614 25.7656H199.726V23.7656H194.614V25.7656ZM200.726 24.7656V7.95362H198.726V24.7656H200.726ZM198.799 8.32707L205.567 25.1391L207.422 24.3922L200.654 7.58018L198.799 8.32707ZM206.494 25.7656H208.726V23.7656H206.494V25.7656ZM209.654 25.1391L216.422 8.32707L214.567 7.58018L207.799 24.3922L209.654 25.1391ZM214.494 7.95362V24.7656H216.494V7.95362H214.494ZM215.494 25.7656H220.642V23.7656H215.494V25.7656ZM245.314 24.7656V25.7656H246.314V24.7656H245.314ZM245.314 5.25362V4.25362H244.314V5.25362H245.314ZM252.298 5.25362V6.25362H253.298V5.25362H252.298ZM252.298 0.753623H253.298V-0.246377H252.298V0.753623ZM233.146 0.753623V-0.246377H232.146V0.753623H233.146ZM233.146 5.25362H232.146V6.25362H233.146V5.25362ZM240.166 5.25362H241.166V4.25362H240.166V5.25362ZM240.166 24.7656H239.166V25.7656H240.166V24.7656ZM246.314 24.7656V5.25362H244.314V24.7656H246.314ZM245.314 6.25362H252.298V4.25362H245.314V6.25362ZM253.298 5.25362V0.753623H251.298V5.25362H253.298ZM252.298 -0.246377H233.146V1.75362H252.298V-0.246377ZM232.146 0.753623V5.25362H234.146V0.753623H232.146ZM233.146 6.25362H240.166V4.25362H233.146V6.25362ZM239.166 5.25362V24.7656H241.166V5.25362H239.166ZM240.166 25.7656H245.314V23.7656H240.166V25.7656ZM277.175 24.7656V25.7656H278.175V24.7656H277.175ZM277.175 0.753623H278.175V-0.246377H277.175V0.753623ZM272.027 0.753623V-0.246377H271.027V0.753623H272.027ZM272.027 10.1856V11.1856H273.027V10.1856H272.027ZM260.687 10.1856H259.687V11.1856H260.687V10.1856ZM260.687 0.753623H261.687V-0.246377H260.687V0.753623ZM255.575 0.753623V-0.246377H254.575V0.753623H255.575ZM255.575 24.7656H254.575V25.7656H255.575V24.7656ZM260.687 24.7656V25.7656H261.687V24.7656H260.687ZM260.687 14.6856V13.6856H259.687V14.6856H260.687ZM272.027 14.6856H273.027V13.6856H272.027V14.6856ZM272.027 24.7656H271.027V25.7656H272.027V24.7656ZM278.175 24.7656V0.753623H276.175V24.7656H278.175ZM277.175 -0.246377H272.027V1.75362H277.175V-0.246377ZM271.027 0.753623V10.1856H273.027V0.753623H271.027ZM272.027 9.18562H260.687V11.1856H272.027V9.18562ZM261.687 10.1856V0.753623H259.687V10.1856H261.687ZM260.687 -0.246377H255.575V1.75362H260.687V-0.246377ZM254.575 0.753623V24.7656H256.575V0.753623H254.575ZM255.575 25.7656H260.687V23.7656H255.575V25.7656ZM261.687 24.7656V14.6856H259.687V24.7656H261.687ZM260.687 15.6856H272.027V13.6856H260.687V15.6856ZM271.027 14.6856V24.7656H273.027V14.6856H271.027ZM272.027 25.7656H277.175V23.7656H272.027V25.7656ZM298.899 24.7656V25.7656H299.899V24.7656H298.899ZM298.899 20.2656H299.899V19.2656H298.899V20.2656ZM287.019 20.2656H286.019V21.2656H287.019V20.2656ZM287.019 14.8296V13.8296H286.019V14.8296H287.019ZM298.647 14.8296V15.8296H299.647V14.8296H298.647ZM298.647 10.3296H299.647V9.32962H298.647V10.3296ZM287.019 10.3296H286.019V11.3296H287.019V10.3296ZM287.019 5.25362V4.25362H286.019V5.25362H287.019ZM298.899 5.25362V6.25362H299.899V5.25362H298.899ZM298.899 0.753623H299.899V-0.246377H298.899V0.753623ZM281.907 0.753623V-0.246377H280.907V0.753623H281.907ZM281.907 24.7656H280.907V25.7656H281.907V24.7656ZM299.899 24.7656V20.2656H297.899V24.7656H299.899ZM298.899 19.2656H287.019V21.2656H298.899V19.2656ZM288.019 20.2656V14.8296H286.019V20.2656H288.019ZM287.019 15.8296H298.647V13.8296H287.019V15.8296ZM299.647 14.8296V10.3296H297.647V14.8296H299.647ZM298.647 9.32962H287.019V11.3296H298.647V9.32962ZM288.019 10.3296V5.25362H286.019V10.3296H288.019ZM287.019 6.25362H298.899V4.25362H287.019V6.25362ZM299.899 5.25362V0.753623H297.899V5.25362H299.899ZM298.899 -0.246377H281.907V1.75362H298.899V-0.246377ZM280.907 0.753623V24.7656H282.907V0.753623H280.907ZM281.907 25.7656H298.899V23.7656H281.907V25.7656ZM327.514 12.3816L327.312 11.4023L327.361 13.3698L327.514 12.3816ZM312.106 0.753623V-0.246377H311.106V0.753623H312.106ZM312.106 24.7656H311.106V25.7656H312.106V24.7656ZM317.218 10.3656H316.218V11.3656H317.218V10.3656ZM317.218 5.14562V4.14562H316.218V5.14562H317.218ZM317.218 20.3376H316.218V21.3376H317.218V20.3376ZM317.218 14.7576V13.7576H316.218V14.7576H317.218ZM325.138 25.7656C327.64 25.7656 329.657 24.9727 331.051 23.5841C332.441 22.1993 333.122 20.3103 333.122 18.2856H331.122C331.122 19.8609 330.598 21.212 329.639 22.1672C328.684 23.1186 327.209 23.7656 325.138 23.7656V25.7656ZM333.122 18.2856C333.122 14.8357 330.775 11.8748 327.668 11.3934L327.361 13.3698C329.366 13.6805 331.122 15.6876 331.122 18.2856H333.122ZM327.717 13.361C330.465 12.7938 332.654 10.3556 332.654 6.87362H330.654C330.654 9.43966 329.1 11.0334 327.312 11.4023L327.717 13.361ZM332.654 6.87362C332.654 5.02684 331.978 3.23086 330.612 1.89672C329.241 0.557615 327.248 -0.246377 324.742 -0.246377V1.75362C326.809 1.75362 328.272 2.40763 329.214 3.32753C330.161 4.25239 330.654 5.51641 330.654 6.87362H332.654ZM324.742 -0.246377H312.106V1.75362H324.742V-0.246377ZM311.106 0.753623V24.7656H313.106V0.753623H311.106ZM312.106 25.7656H325.138V23.7656H312.106V25.7656ZM323.626 9.36562H317.218V11.3656H323.626V9.36562ZM318.218 10.3656V5.14562H316.218V10.3656H318.218ZM317.218 6.14562H323.626V4.14562H317.218V6.14562ZM323.626 6.14562C324.271 6.14562 324.712 6.35007 324.985 6.61294C325.257 6.87477 325.434 7.26281 325.434 7.77362H327.434C327.434 6.77244 327.072 5.84648 326.372 5.1723C325.673 4.49918 324.71 4.14562 323.626 4.14562V6.14562ZM325.434 7.77362C325.434 8.28281 325.258 8.65812 324.992 8.90961C324.722 9.16446 324.28 9.36562 323.626 9.36562V11.3656C324.7 11.3656 325.663 11.0268 326.365 10.3636C327.071 9.69713 327.434 8.77644 327.434 7.77362H325.434ZM323.806 19.3376H317.218V21.3376H323.806V19.3376ZM318.218 20.3376V14.7576H316.218V20.3376H318.218ZM317.218 15.7576H323.806V13.7576H317.218V15.7576ZM323.806 15.7576C324.593 15.7576 325.102 16.0056 325.41 16.3079C325.721 16.6142 325.902 17.05 325.902 17.5656H327.902C327.902 16.5693 327.544 15.6011 326.811 14.8814C326.075 14.1576 325.035 13.7576 323.806 13.7576V15.7576ZM325.902 17.5656C325.902 18.1971 325.7 18.6001 325.415 18.8557C325.117 19.1237 324.607 19.3376 323.806 19.3376V21.3376C324.95 21.3376 325.988 21.0296 326.752 20.3435C327.529 19.6451 327.902 18.6622 327.902 17.5656H325.902ZM352.97 24.7656V25.7656H353.97V24.7656H352.97ZM352.97 20.2656H353.97V19.2656H352.97V20.2656ZM341.09 20.2656H340.09V21.2656H341.09V20.2656ZM341.09 14.8296V13.8296H340.09V14.8296H341.09ZM352.718 14.8296V15.8296H353.718V14.8296H352.718ZM352.718 10.3296H353.718V9.32962H352.718V10.3296ZM341.09 10.3296H340.09V11.3296H341.09V10.3296ZM341.09 5.25362V4.25362H340.09V5.25362H341.09ZM352.97 5.25362V6.25362H353.97V5.25362H352.97ZM352.97 0.753623H353.97V-0.246377H352.97V0.753623ZM335.978 0.753623V-0.246377H334.978V0.753623H335.978ZM335.978 24.7656H334.978V25.7656H335.978V24.7656ZM353.97 24.7656V20.2656H351.97V24.7656H353.97ZM352.97 19.2656H341.09V21.2656H352.97V19.2656ZM342.09 20.2656V14.8296H340.09V20.2656H342.09ZM341.09 15.8296H352.718V13.8296H341.09V15.8296ZM353.718 14.8296V10.3296H351.718V14.8296H353.718ZM352.718 9.32962H341.09V11.3296H352.718V9.32962ZM342.09 10.3296V5.25362H340.09V10.3296H342.09ZM341.09 6.25362H352.97V4.25362H341.09V6.25362ZM353.97 5.25362V0.753623H351.97V5.25362H353.97ZM352.97 -0.246377H335.978V1.75362H352.97V-0.246377ZM334.978 0.753623V24.7656H336.978V0.753623H334.978ZM335.978 25.7656H352.97V23.7656H335.978V25.7656ZM371.726 7.48562L371.046 8.21938L371.855 8.96836L372.522 8.09051L371.726 7.48562ZM374.57 3.74162L375.366 4.34651L375.915 3.62351L375.249 3.00725L374.57 3.74162ZM358.118 17.4936L358.84 16.8014L358.004 15.9305L357.304 16.9131L358.118 17.4936ZM355.346 21.3816L354.532 20.8011L354.044 21.4847L354.633 22.0831L355.346 21.3816ZM365.498 26.1976C368.9 26.1976 371.561 25.3278 373.388 23.7492C375.229 22.1573 376.11 19.9397 376.11 17.4936H374.11C374.11 19.4395 373.424 21.0739 372.08 22.2361C370.72 23.4114 368.576 24.1976 365.498 24.1976V26.1976ZM376.11 17.4936C376.11 14.9486 375.111 13.1493 373.597 11.8838C372.134 10.661 370.238 9.97546 368.484 9.48768C367.6 9.24196 366.715 9.03704 365.918 8.84564C365.107 8.65083 364.395 8.47132 363.797 8.26912C363.186 8.06282 362.787 7.86178 362.553 7.6673C362.354 7.50239 362.322 7.38895 362.322 7.26962H360.322C360.322 8.10429 360.72 8.74573 361.276 9.20647C361.795 9.63763 362.473 9.93299 363.156 10.1638C363.851 10.3986 364.646 10.5968 365.451 10.7903C366.27 10.9871 367.108 11.181 367.948 11.4146C369.641 11.8853 371.192 12.48 372.314 13.4183C373.386 14.3139 374.11 15.5567 374.11 17.4936H376.11ZM362.322 7.26962C362.322 6.86807 362.476 6.56591 362.797 6.33182C363.152 6.07349 363.776 5.85762 364.742 5.85762V3.85762C363.512 3.85762 362.426 4.12775 361.619 4.71543C360.78 5.32734 360.322 6.23118 360.322 7.26962H362.322ZM364.742 5.85762C366.978 5.85762 369.315 6.61601 371.046 8.21938L372.405 6.75186C370.249 4.75523 367.402 3.85762 364.742 3.85762V5.85762ZM372.522 8.09051L375.366 4.34651L373.774 3.13673L370.93 6.88074L372.522 8.09051ZM375.249 3.00725C372.659 0.614073 369.236 -0.606377 365.21 -0.606377V1.39362C368.816 1.39362 371.728 2.47717 373.891 4.476L375.249 3.00725ZM365.21 -0.606377C359.17 -0.606377 355.102 3.00238 355.102 7.70162H357.102C357.102 4.40887 359.946 1.39362 365.21 1.39362V-0.606377ZM355.102 7.70162C355.102 10.2643 356.103 12.0584 357.627 13.3093C359.097 14.5152 361 15.1741 362.754 15.6467C363.635 15.8841 364.526 16.086 365.317 16.277C366.126 16.4721 366.836 16.6568 367.428 16.8694C368.031 17.0857 368.425 17.3015 368.658 17.5142C368.857 17.6951 368.926 17.8563 368.926 18.0696H370.926C370.926 17.221 370.563 16.544 370.005 16.036C369.483 15.5598 368.797 15.2359 368.104 14.987C367.4 14.7344 366.597 14.5284 365.786 14.3328C364.958 14.1329 364.121 13.9438 363.274 13.7156C361.571 13.2567 360.019 12.6848 358.896 11.7633C357.828 10.8869 357.102 9.65699 357.102 7.70162H355.102ZM368.926 18.0696C368.926 18.3922 368.773 18.7701 368.31 19.1009C367.832 19.4418 367.01 19.7336 365.75 19.7336V21.7336C367.297 21.7336 368.563 21.3775 369.472 20.7284C370.395 20.0692 370.926 19.115 370.926 18.0696H368.926ZM365.75 19.7336C362.749 19.7336 360.372 18.3987 358.84 16.8014L357.396 18.1859C359.248 20.1165 362.127 21.7336 365.75 21.7336V19.7336ZM357.304 16.9131L354.532 20.8011L356.16 21.9621L358.932 18.0741L357.304 16.9131ZM354.633 22.0831C357.071 24.5598 360.648 26.1976 365.498 26.1976V24.1976C361.132 24.1976 358.085 22.7395 356.059 20.6802L354.633 22.0831ZM388.787 24.7656V25.7656H389.787V24.7656H388.787ZM388.787 5.25362V4.25362H387.787V5.25362H388.787ZM395.771 5.25362V6.25362H396.771V5.25362H395.771ZM395.771 0.753623H396.771V-0.246377H395.771V0.753623ZM376.619 0.753623V-0.246377H375.619V0.753623H376.619ZM376.619 5.25362H375.619V6.25362H376.619V5.25362ZM383.639 5.25362H384.639V4.25362H383.639V5.25362ZM383.639 24.7656H382.639V25.7656H383.639V24.7656ZM389.787 24.7656V5.25362H387.787V24.7656H389.787ZM388.787 6.25362H395.771V4.25362H388.787V6.25362ZM396.771 5.25362V0.753623H394.771V5.25362H396.771ZM395.771 -0.246377H376.619V1.75362H395.771V-0.246377ZM375.619 0.753623V5.25362H377.619V0.753623H375.619ZM376.619 6.25362H383.639V4.25362H376.619V6.25362ZM382.639 5.25362V24.7656H384.639V5.25362H382.639ZM383.639 25.7656H388.787V23.7656H383.639V25.7656ZM15.784 56.3816L15.5819 55.4023L15.6309 57.3698L15.784 56.3816ZM0.376 44.7536V43.7536H-0.624V44.7536H0.376ZM0.376 68.7656H-0.624V69.7656H0.376V68.7656ZM5.488 54.3656H4.488V55.3656H5.488V54.3656ZM5.488 49.1456V48.1456H4.488V49.1456H5.488ZM5.488 64.3376H4.488V65.3376H5.488V64.3376ZM5.488 58.7576V57.7576H4.488V58.7576H5.488ZM13.408 69.7656C15.9097 69.7656 17.9263 68.9727 19.3202 67.5841C20.7104 66.1993 21.392 64.3103 21.392 62.2856H19.392C19.392 63.8609 18.8676 65.212 17.9088 66.1672C16.9537 67.1186 15.4783 67.7656 13.408 67.7656V69.7656ZM21.392 62.2856C21.392 58.8357 19.0441 55.8748 15.9371 55.3934L15.6309 57.3698C17.6359 57.6805 19.392 59.6876 19.392 62.2856H21.392ZM15.9861 57.361C18.7346 56.7938 20.924 54.3556 20.924 50.8736H18.924C18.924 53.4397 17.3694 55.0334 15.5819 55.4023L15.9861 57.361ZM20.924 50.8736C20.924 49.0268 20.2472 47.2309 18.8812 45.8967C17.5101 44.5576 15.5175 43.7536 13.012 43.7536V45.7536C15.0785 45.7536 16.5419 46.4076 17.4838 47.3275C18.4308 48.2524 18.924 49.5164 18.924 50.8736H20.924ZM13.012 43.7536H0.376V45.7536H13.012V43.7536ZM-0.624 44.7536V68.7656H1.376V44.7536H-0.624ZM0.376 69.7656H13.408V67.7656H0.376V69.7656ZM11.896 53.3656H5.488V55.3656H11.896V53.3656ZM6.488 54.3656V49.1456H4.488V54.3656H6.488ZM5.488 50.1456H11.896V48.1456H5.488V50.1456ZM11.896 50.1456C12.5409 50.1456 12.9814 50.3501 13.2544 50.6129C13.5263 50.8748 13.704 51.2628 13.704 51.7736H15.704C15.704 50.7724 15.3417 49.8465 14.6416 49.1723C13.9426 48.4992 12.9791 48.1456 11.896 48.1456V50.1456ZM13.704 51.7736C13.704 52.2828 13.5277 52.6581 13.2614 52.9096C12.9915 53.1645 12.55 53.3656 11.896 53.3656V55.3656C12.97 55.3656 13.9325 55.0268 14.6346 54.3636C15.3403 53.6971 15.704 52.7764 15.704 51.7736H13.704ZM12.076 63.3376H5.488V65.3376H12.076V63.3376ZM6.488 64.3376V58.7576H4.488V64.3376H6.488ZM5.488 59.7576H12.076V57.7576H5.488V59.7576ZM12.076 59.7576C12.863 59.7576 13.3715 60.0056 13.6791 60.3079C13.9907 60.6142 14.172 61.05 14.172 61.5656H16.172C16.172 60.5693 15.8133 59.6011 15.0809 58.8814C14.3445 58.1576 13.305 57.7576 12.076 57.7576V59.7576ZM14.172 61.5656C14.172 62.1971 13.9692 62.6001 13.6847 62.8557C13.3864 63.1237 12.8765 63.3376 12.076 63.3376V65.3376C13.2195 65.3376 14.2576 65.0296 15.0213 64.3435C15.7988 63.6451 16.172 62.6622 16.172 61.5656H14.172ZM41.2391 68.7656V69.7656H42.2391V68.7656H41.2391ZM41.2391 64.2656H42.2391V63.2656H41.2391V64.2656ZM29.3591 64.2656H28.3591V65.2656H29.3591V64.2656ZM29.3591 58.8296V57.8296H28.3591V58.8296H29.3591ZM40.9871 58.8296V59.8296H41.9871V58.8296H40.9871ZM40.9871 54.3296H41.9871V53.3296H40.9871V54.3296ZM29.3591 54.3296H28.3591V55.3296H29.3591V54.3296ZM29.3591 49.2536V48.2536H28.3591V49.2536H29.3591ZM41.2391 49.2536V50.2536H42.2391V49.2536H41.2391ZM41.2391 44.7536H42.2391V43.7536H41.2391V44.7536ZM24.2471 44.7536V43.7536H23.2471V44.7536H24.2471ZM24.2471 68.7656H23.2471V69.7656H24.2471V68.7656ZM42.2391 68.7656V64.2656H40.2391V68.7656H42.2391ZM41.2391 63.2656H29.3591V65.2656H41.2391V63.2656ZM30.3591 64.2656V58.8296H28.3591V64.2656H30.3591ZM29.3591 59.8296H40.9871V57.8296H29.3591V59.8296ZM41.9871 58.8296V54.3296H39.9871V58.8296H41.9871ZM40.9871 53.3296H29.3591V55.3296H40.9871V53.3296ZM30.3591 54.3296V49.2536H28.3591V54.3296H30.3591ZM29.3591 50.2536H41.2391V48.2536H29.3591V50.2536ZM42.2391 49.2536V44.7536H40.2391V49.2536H42.2391ZM41.2391 43.7536H24.2471V45.7536H41.2391V43.7536ZM23.2471 44.7536V68.7656H25.2471V44.7536H23.2471ZM24.2471 69.7656H41.2391V67.7656H24.2471V69.7656ZM66.9074 63.2936L67.773 63.7942L68.3121 62.8622L67.3427 62.3934L66.9074 63.2936ZM62.5154 61.1696L62.9507 60.2694L62.0687 59.8428L61.6242 60.7159L62.5154 61.1696ZM62.5154 52.3856L61.6276 52.8459L62.0782 53.715L62.9567 53.283L62.5154 52.3856ZM66.9074 50.2256L67.3487 51.123L68.2998 50.6552L67.7775 49.7329L66.9074 50.2256ZM56.8634 70.1976C62.6141 70.1976 65.9239 66.9918 67.773 63.7942L66.0417 62.793C64.4349 65.5715 61.6966 68.1976 56.8634 68.1976V70.1976ZM67.3427 62.3934L62.9507 60.2694L62.08 62.0699L66.472 64.1939L67.3427 62.3934ZM61.6242 60.7159C60.7726 62.3887 58.9408 63.6616 56.8634 63.6616V65.6616C59.7539 65.6616 62.2421 63.9106 63.4065 61.6233L61.6242 60.7159ZM56.8634 63.6616C53.1055 63.6616 50.3394 60.8083 50.3394 56.7776H48.3394C48.3394 61.8189 51.9092 65.6616 56.8634 65.6616V63.6616ZM50.3394 56.7776C50.3394 52.7469 53.1055 49.8936 56.8634 49.8936V47.8936C51.9092 47.8936 48.3394 51.7363 48.3394 56.7776H50.3394ZM56.8634 49.8936C58.9331 49.8936 60.7719 51.1956 61.6276 52.8459L63.4031 51.9253C62.2428 49.6876 59.7617 47.8936 56.8634 47.8936V49.8936ZM62.9567 53.283L67.3487 51.123L66.4661 49.3283L62.0741 51.4883L62.9567 53.283ZM67.7775 49.7329C65.9567 46.5173 62.6046 43.3576 56.8634 43.3576V45.3576C61.7062 45.3576 64.474 47.9579 66.0372 50.7184L67.7775 49.7329ZM56.8634 43.3576C49.159 43.3576 43.0834 48.7986 43.0834 56.7776H45.0834C45.0834 49.9967 50.1677 45.3576 56.8634 45.3576V43.3576ZM43.0834 56.7776C43.0834 64.7567 49.159 70.1976 56.8634 70.1976V68.1976C50.1677 68.1976 45.0834 63.5586 45.0834 56.7776H43.0834ZM81.3262 70.1976C89.1371 70.1976 94.8902 64.5793 94.8902 56.7776H92.8902C92.8902 63.448 88.0594 68.1976 81.3262 68.1976V70.1976ZM94.8902 56.7776C94.8902 48.976 89.1371 43.3576 81.3262 43.3576V45.3576C88.0594 45.3576 92.8902 50.1073 92.8902 56.7776H94.8902ZM81.3262 43.3576C73.5495 43.3576 67.7982 48.9779 67.7982 56.7776H69.7982C69.7982 50.1054 74.631 45.3576 81.3262 45.3576V43.3576ZM67.7982 56.7776C67.7982 64.5774 73.5495 70.1976 81.3262 70.1976V68.1976C74.631 68.1976 69.7982 63.4499 69.7982 56.7776H67.7982ZM81.3262 63.6616C79.3867 63.6616 77.8432 62.9205 76.7749 61.7268C75.6972 60.5225 75.0542 58.7999 75.0542 56.7776H73.0542C73.0542 59.2193 73.8332 61.4387 75.2845 63.0605C76.7453 64.6928 78.8377 65.6616 81.3262 65.6616V63.6616ZM75.0542 56.7776C75.0542 54.7358 75.6981 53.0144 76.7738 51.8162C77.8403 50.6282 79.3834 49.8936 81.3262 49.8936V47.8936C78.841 47.8936 76.7481 48.851 75.2856 50.4801C73.8324 52.0988 73.0542 54.3194 73.0542 56.7776H75.0542ZM81.3262 49.8936C83.2697 49.8936 84.823 50.6288 85.899 51.8188C86.9834 53.0182 87.6342 54.7391 87.6342 56.7776H89.6342C89.6342 54.3161 88.845 52.0951 87.3825 50.4775C85.9114 48.8504 83.8108 47.8936 81.3262 47.8936V49.8936ZM87.6342 56.7776C87.6342 58.7966 86.9843 60.5188 85.8979 61.7241C84.8202 62.9199 83.2664 63.6616 81.3262 63.6616V65.6616C83.8141 65.6616 85.9142 64.6934 87.3835 63.0631C88.8442 61.4425 89.6342 59.2226 89.6342 56.7776H87.6342ZM123.506 68.7656V69.7656H124.506V68.7656H123.506ZM123.506 44.7536H124.506V43.7536H123.506V44.7536ZM116.306 44.7536V43.7536H115.63L115.378 44.3806L116.306 44.7536ZM110.474 59.2616L109.546 59.6346L110.474 61.9427L111.401 59.6346L110.474 59.2616ZM104.642 44.7536L105.569 44.3806L105.317 43.7536H104.642V44.7536ZM97.4776 44.7536V43.7536H96.4776V44.7536H97.4776ZM97.4776 68.7656H96.4776V69.7656H97.4776V68.7656ZM102.59 68.7656V69.7656H103.59V68.7656H102.59ZM102.59 51.9536L103.517 51.5802L101.59 51.9536H102.59ZM109.358 68.7656L108.43 69.1391L108.682 69.7656H109.358V68.7656ZM111.59 68.7656V69.7656H112.265L112.517 69.1391L111.59 68.7656ZM118.358 51.9536H119.358L117.43 51.5802L118.358 51.9536ZM118.358 68.7656H117.358V69.7656H118.358V68.7656ZM124.506 68.7656V44.7536H122.506V68.7656H124.506ZM123.506 43.7536H116.306V45.7536H123.506V43.7536ZM115.378 44.3806L109.546 58.8886L111.401 59.6346L117.233 45.1266L115.378 44.3806ZM111.401 58.8886L105.569 44.3806L103.714 45.1266L109.546 59.6346L111.401 58.8886ZM104.642 43.7536H97.4776V45.7536H104.642V43.7536ZM96.4776 44.7536V68.7656H98.4776V44.7536H96.4776ZM97.4776 69.7656H102.59V67.7656H97.4776V69.7656ZM103.59 68.7656V51.9536H101.59V68.7656H103.59ZM101.662 52.3271L108.43 69.1391L110.285 68.3922L103.517 51.5802L101.662 52.3271ZM109.358 69.7656H111.59V67.7656H109.358V69.7656ZM112.517 69.1391L119.285 52.3271L117.43 51.5802L110.662 68.3922L112.517 69.1391ZM117.358 51.9536V68.7656H119.358V51.9536H117.358ZM118.358 69.7656H123.506V67.7656H118.358V69.7656ZM145.266 68.7656V69.7656H146.266V68.7656H145.266ZM145.266 64.2656H146.266V63.2656H145.266V64.2656ZM133.386 64.2656H132.386V65.2656H133.386V64.2656ZM133.386 58.8296V57.8296H132.386V58.8296H133.386ZM145.014 58.8296V59.8296H146.014V58.8296H145.014ZM145.014 54.3296H146.014V53.3296H145.014V54.3296ZM133.386 54.3296H132.386V55.3296H133.386V54.3296ZM133.386 49.2536V48.2536H132.386V49.2536H133.386ZM145.266 49.2536V50.2536H146.266V49.2536H145.266ZM145.266 44.7536H146.266V43.7536H145.266V44.7536ZM128.274 44.7536V43.7536H127.274V44.7536H128.274ZM128.274 68.7656H127.274V69.7656H128.274V68.7656ZM146.266 68.7656V64.2656H144.266V68.7656H146.266ZM145.266 63.2656H133.386V65.2656H145.266V63.2656ZM134.386 64.2656V58.8296H132.386V64.2656H134.386ZM133.386 59.8296H145.014V57.8296H133.386V59.8296ZM146.014 58.8296V54.3296H144.014V58.8296H146.014ZM145.014 53.3296H133.386V55.3296H145.014V53.3296ZM134.386 54.3296V49.2536H132.386V54.3296H134.386ZM133.386 50.2536H145.266V48.2536H133.386V50.2536ZM146.266 49.2536V44.7536H144.266V49.2536H146.266ZM145.266 43.7536H128.274V45.7536H145.266V43.7536ZM127.274 44.7536V68.7656H129.274V44.7536H127.274ZM128.274 69.7656H145.266V67.7656H128.274V69.7656ZM169.166 68.7656V69.7656H170.166V68.7656H169.166ZM169.166 49.2536V48.2536H168.166V49.2536H169.166ZM176.15 49.2536V50.2536H177.15V49.2536H176.15ZM176.15 44.7536H177.15V43.7536H176.15V44.7536ZM156.998 44.7536V43.7536H155.998V44.7536H156.998ZM156.998 49.2536H155.998V50.2536H156.998V49.2536ZM164.018 49.2536H165.018V48.2536H164.018V49.2536ZM164.018 68.7656H163.018V69.7656H164.018V68.7656ZM170.166 68.7656V49.2536H168.166V68.7656H170.166ZM169.166 50.2536H176.15V48.2536H169.166V50.2536ZM177.15 49.2536V44.7536H175.15V49.2536H177.15ZM176.15 43.7536H156.998V45.7536H176.15V43.7536ZM155.998 44.7536V49.2536H157.998V44.7536H155.998ZM156.998 50.2536H164.018V48.2536H156.998V50.2536ZM163.018 49.2536V68.7656H165.018V49.2536H163.018ZM164.018 69.7656H169.166V67.7656H164.018V69.7656ZM201.027 68.7656V69.7656H202.027V68.7656H201.027ZM201.027 44.7536H202.027V43.7536H201.027V44.7536ZM195.879 44.7536V43.7536H194.879V44.7536H195.879ZM195.879 54.1856V55.1856H196.879V54.1856H195.879ZM184.539 54.1856H183.539V55.1856H184.539V54.1856ZM184.539 44.7536H185.539V43.7536H184.539V44.7536ZM179.427 44.7536V43.7536H178.427V44.7536H179.427ZM179.427 68.7656H178.427V69.7656H179.427V68.7656ZM184.539 68.7656V69.7656H185.539V68.7656H184.539ZM184.539 58.6856V57.6856H183.539V58.6856H184.539ZM195.879 58.6856H196.879V57.6856H195.879V58.6856ZM195.879 68.7656H194.879V69.7656H195.879V68.7656ZM202.027 68.7656V44.7536H200.027V68.7656H202.027ZM201.027 43.7536H195.879V45.7536H201.027V43.7536ZM194.879 44.7536V54.1856H196.879V44.7536H194.879ZM195.879 53.1856H184.539V55.1856H195.879V53.1856ZM185.539 54.1856V44.7536H183.539V54.1856H185.539ZM184.539 43.7536H179.427V45.7536H184.539V43.7536ZM178.427 44.7536V68.7656H180.427V44.7536H178.427ZM179.427 69.7656H184.539V67.7656H179.427V69.7656ZM185.539 68.7656V58.6856H183.539V68.7656H185.539ZM184.539 59.6856H195.879V57.6856H184.539V59.6856ZM194.879 58.6856V68.7656H196.879V58.6856H194.879ZM195.879 69.7656H201.027V67.7656H195.879V69.7656ZM222.751 68.7656V69.7656H223.751V68.7656H222.751ZM222.751 64.2656H223.751V63.2656H222.751V64.2656ZM210.871 64.2656H209.871V65.2656H210.871V64.2656ZM210.871 58.8296V57.8296H209.871V58.8296H210.871ZM222.499 58.8296V59.8296H223.499V58.8296H222.499ZM222.499 54.3296H223.499V53.3296H222.499V54.3296ZM210.871 54.3296H209.871V55.3296H210.871V54.3296ZM210.871 49.2536V48.2536H209.871V49.2536H210.871ZM222.751 49.2536V50.2536H223.751V49.2536H222.751ZM222.751 44.7536H223.751V43.7536H222.751V44.7536ZM205.759 44.7536V43.7536H204.759V44.7536H205.759ZM205.759 68.7656H204.759V69.7656H205.759V68.7656ZM223.751 68.7656V64.2656H221.751V68.7656H223.751ZM222.751 63.2656H210.871V65.2656H222.751V63.2656ZM211.871 64.2656V58.8296H209.871V64.2656H211.871ZM210.871 59.8296H222.499V57.8296H210.871V59.8296ZM223.499 58.8296V54.3296H221.499V58.8296H223.499ZM222.499 53.3296H210.871V55.3296H222.499V53.3296ZM211.871 54.3296V49.2536H209.871V54.3296H211.871ZM210.871 50.2536H222.751V48.2536H210.871V50.2536ZM223.751 49.2536V44.7536H221.751V49.2536H223.751ZM222.751 43.7536H205.759V45.7536H222.751V43.7536ZM204.759 44.7536V68.7656H206.759V44.7536H204.759ZM205.759 69.7656H222.751V67.7656H205.759V69.7656ZM251.366 56.3816L251.164 55.4023L251.213 57.3698L251.366 56.3816ZM235.958 44.7536V43.7536H234.958V44.7536H235.958ZM235.958 68.7656H234.958V69.7656H235.958V68.7656ZM241.07 54.3656H240.07V55.3656H241.07V54.3656ZM241.07 49.1456V48.1456H240.07V49.1456H241.07ZM241.07 64.3376H240.07V65.3376H241.07V64.3376ZM241.07 58.7576V57.7576H240.07V58.7576H241.07ZM248.99 69.7656C251.492 69.7656 253.508 68.9727 254.902 67.5841C256.292 66.1993 256.974 64.3103 256.974 62.2856H254.974C254.974 63.8609 254.45 65.212 253.491 66.1672C252.536 67.1186 251.06 67.7656 248.99 67.7656V69.7656ZM256.974 62.2856C256.974 58.8357 254.626 55.8748 251.519 55.3934L251.213 57.3698C253.218 57.6805 254.974 59.6876 254.974 62.2856H256.974ZM251.568 57.361C254.317 56.7938 256.506 54.3556 256.506 50.8736H254.506C254.506 53.4397 252.951 55.0334 251.164 55.4023L251.568 57.361ZM256.506 50.8736C256.506 49.0268 255.829 47.2309 254.463 45.8967C253.092 44.5576 251.1 43.7536 248.594 43.7536V45.7536C250.661 45.7536 252.124 46.4076 253.066 47.3275C254.013 48.2524 254.506 49.5164 254.506 50.8736H256.506ZM248.594 43.7536H235.958V45.7536H248.594V43.7536ZM234.958 44.7536V68.7656H236.958V44.7536H234.958ZM235.958 69.7656H248.99V67.7656H235.958V69.7656ZM247.478 53.3656H241.07V55.3656H247.478V53.3656ZM242.07 54.3656V49.1456H240.07V54.3656H242.07ZM241.07 50.1456H247.478V48.1456H241.07V50.1456ZM247.478 50.1456C248.123 50.1456 248.563 50.3501 248.836 50.6129C249.108 50.8748 249.286 51.2628 249.286 51.7736H251.286C251.286 50.7724 250.924 49.8465 250.224 49.1723C249.525 48.4992 248.561 48.1456 247.478 48.1456V50.1456ZM249.286 51.7736C249.286 52.2828 249.11 52.6581 248.843 52.9096C248.574 53.1645 248.132 53.3656 247.478 53.3656V55.3656C248.552 55.3656 249.514 55.0268 250.217 54.3636C250.922 53.6971 251.286 52.7764 251.286 51.7736H249.286ZM247.658 63.3376H241.07V65.3376H247.658V63.3376ZM242.07 64.3376V58.7576H240.07V64.3376H242.07ZM241.07 59.7576H247.658V57.7576H241.07V59.7576ZM247.658 59.7576C248.445 59.7576 248.954 60.0056 249.261 60.3079C249.573 60.6142 249.754 61.05 249.754 61.5656H251.754C251.754 60.5693 251.395 59.6011 250.663 58.8814C249.926 58.1576 248.887 57.7576 247.658 57.7576V59.7576ZM249.754 61.5656C249.754 62.1971 249.551 62.6001 249.267 62.8557C248.968 63.1237 248.459 63.3376 247.658 63.3376V65.3376C248.802 65.3376 249.84 65.0296 250.603 64.3435C251.381 63.6451 251.754 62.6622 251.754 61.5656H249.754ZM276.821 68.7656V69.7656H277.821V68.7656H276.821ZM276.821 64.2656H277.821V63.2656H276.821V64.2656ZM264.941 64.2656H263.941V65.2656H264.941V64.2656ZM264.941 58.8296V57.8296H263.941V58.8296H264.941ZM276.569 58.8296V59.8296H277.569V58.8296H276.569ZM276.569 54.3296H277.569V53.3296H276.569V54.3296ZM264.941 54.3296H263.941V55.3296H264.941V54.3296ZM264.941 49.2536V48.2536H263.941V49.2536H264.941ZM276.821 49.2536V50.2536H277.821V49.2536H276.821ZM276.821 44.7536H277.821V43.7536H276.821V44.7536ZM259.829 44.7536V43.7536H258.829V44.7536H259.829ZM259.829 68.7656H258.829V69.7656H259.829V68.7656ZM277.821 68.7656V64.2656H275.821V68.7656H277.821ZM276.821 63.2656H264.941V65.2656H276.821V63.2656ZM265.941 64.2656V58.8296H263.941V64.2656H265.941ZM264.941 59.8296H276.569V57.8296H264.941V59.8296ZM277.569 58.8296V54.3296H275.569V58.8296H277.569ZM276.569 53.3296H264.941V55.3296H276.569V53.3296ZM265.941 54.3296V49.2536H263.941V54.3296H265.941ZM264.941 50.2536H276.821V48.2536H264.941V50.2536ZM277.821 49.2536V44.7536H275.821V49.2536H277.821ZM276.821 43.7536H259.829V45.7536H276.821V43.7536ZM258.829 44.7536V68.7656H260.829V44.7536H258.829ZM259.829 69.7656H276.821V67.7656H259.829V69.7656ZM295.577 51.4856L294.898 52.2194L295.707 52.9684L296.374 52.0905L295.577 51.4856ZM298.421 47.7416L299.218 48.3465L299.767 47.6235L299.1 47.0072L298.421 47.7416ZM281.969 61.4936L282.691 60.8014L281.856 59.9305L281.155 60.9131L281.969 61.4936ZM279.197 65.3816L278.383 64.8011L277.896 65.4847L278.485 66.0831L279.197 65.3816ZM289.349 70.1976C292.751 70.1976 295.413 69.3278 297.239 67.7492C299.081 66.1573 299.961 63.9397 299.961 61.4936H297.961C297.961 63.4395 297.276 65.0739 295.931 66.2361C294.572 67.4114 292.428 68.1976 289.349 68.1976V70.1976ZM299.961 61.4936C299.961 58.9486 298.962 57.1493 297.448 55.8838C295.986 54.661 294.089 53.9755 292.335 53.4877C291.452 53.242 290.566 53.037 289.77 52.8456C288.959 52.6508 288.246 52.4713 287.648 52.2691C287.038 52.0628 286.639 51.8618 286.404 51.6673C286.206 51.5024 286.173 51.389 286.173 51.2696H284.173C284.173 52.1043 284.572 52.7457 285.127 53.2065C285.647 53.6376 286.325 53.933 287.007 54.1638C287.702 54.3986 288.497 54.5968 289.302 54.7903C290.122 54.9871 290.96 55.181 291.8 55.4146C293.492 55.8853 295.043 56.48 296.166 57.4183C297.237 58.3139 297.961 59.5567 297.961 61.4936H299.961ZM286.173 51.2696C286.173 50.8681 286.328 50.5659 286.649 50.3318C287.003 50.0735 287.627 49.8576 288.593 49.8576V47.8576C287.364 47.8576 286.277 48.1278 285.471 48.7154C284.631 49.3273 284.173 50.2312 284.173 51.2696H286.173ZM288.593 49.8576C290.83 49.8576 293.166 50.616 294.898 52.2194L296.257 50.7519C294.1 48.7552 291.253 47.8576 288.593 47.8576V49.8576ZM296.374 52.0905L299.218 48.3465L297.625 47.1367L294.781 50.8807L296.374 52.0905ZM299.1 47.0072C296.511 44.6141 293.087 43.3936 289.061 43.3936V45.3936C292.668 45.3936 295.58 46.4772 297.743 48.476L299.1 47.0072ZM289.061 43.3936C283.021 43.3936 278.953 47.0024 278.953 51.7016H280.953C280.953 48.4089 283.798 45.3936 289.061 45.3936V43.3936ZM278.953 51.7016C278.953 54.2643 279.955 56.0584 281.479 57.3093C282.948 58.5152 284.852 59.1741 286.605 59.6467C287.486 59.8841 288.377 60.086 289.169 60.277C289.978 60.4721 290.687 60.6568 291.28 60.8694C291.882 61.0857 292.276 61.3015 292.51 61.5142C292.708 61.6951 292.777 61.8563 292.777 62.0696H294.777C294.777 61.221 294.414 60.544 293.857 60.036C293.334 59.5598 292.649 59.2359 291.955 58.987C291.252 58.7344 290.449 58.5284 289.638 58.3328C288.81 58.1329 287.973 57.9438 287.126 57.7156C285.423 57.2567 283.871 56.6848 282.748 55.7633C281.68 54.8869 280.953 53.657 280.953 51.7016H278.953ZM292.777 62.0696C292.777 62.3922 292.624 62.7701 292.161 63.1009C291.684 63.4418 290.862 63.7336 289.601 63.7336V65.7336C291.149 65.7336 292.415 65.3775 293.324 64.7284C294.246 64.0692 294.777 63.115 294.777 62.0696H292.777ZM289.601 63.7336C286.601 63.7336 284.223 62.3987 282.691 60.8014L281.248 62.1859C283.1 64.1165 285.978 65.7336 289.601 65.7336V63.7336ZM281.155 60.9131L278.383 64.8011L280.012 65.9621L282.784 62.0741L281.155 60.9131ZM278.485 66.0831C280.922 68.5598 284.499 70.1976 289.349 70.1976V68.1976C284.983 68.1976 281.937 66.7395 279.91 64.6802L278.485 66.0831ZM312.638 68.7656V69.7656H313.638V68.7656H312.638ZM312.638 49.2536V48.2536H311.638V49.2536H312.638ZM319.622 49.2536V50.2536H320.622V49.2536H319.622ZM319.622 44.7536H320.622V43.7536H319.622V44.7536ZM300.47 44.7536V43.7536H299.47V44.7536H300.47ZM300.47 49.2536H299.47V50.2536H300.47V49.2536ZM307.49 49.2536H308.49V48.2536H307.49V49.2536ZM307.49 68.7656H306.49V69.7656H307.49V68.7656ZM313.638 68.7656V49.2536H311.638V68.7656H313.638ZM312.638 50.2536H319.622V48.2536H312.638V50.2536ZM320.622 49.2536V44.7536H318.622V49.2536H320.622ZM319.622 43.7536H300.47V45.7536H319.622V43.7536ZM299.47 44.7536V49.2536H301.47V44.7536H299.47ZM300.47 50.2536H307.49V48.2536H300.47V50.2536ZM306.49 49.2536V68.7656H308.49V49.2536H306.49ZM307.49 69.7656H312.638V67.7656H307.49V69.7656Z" fill="#FCFCFC"/>
</svg>
