<svg width="13" height="11" viewBox="0 0 13 11" fill="none" xmlns="http://www.w3.org/2000/svg">
<path fill-rule="evenodd" clip-rule="evenodd" d="M0.860258 4.46444C4.2194 3.00092 6.45935 2.03608 7.58011 1.56992C10.7801 0.238924 11.4451 0.00771602 11.8785 8.14021e-05C11.9738 -0.00159775 12.1869 0.0220256 12.325 0.13405C12.4415 0.22864 12.4736 0.356419 12.489 0.446101C12.5043 0.535784 12.5234 0.740083 12.5082 0.899716C12.3348 2.72174 11.5845 7.14333 11.2027 9.18403C11.0412 10.0475 10.7232 10.3371 10.4153 10.3654C9.74611 10.427 9.23799 9.92317 8.58988 9.49833C7.57573 8.83353 7.00279 8.4197 6.01837 7.77098C4.88071 7.02128 5.61821 6.60923 6.26656 5.93583C6.43624 5.75959 9.38454 3.07789 9.4416 2.83462C9.44874 2.80419 9.45536 2.69078 9.38799 2.6309C9.32061 2.57101 9.22117 2.59149 9.14941 2.60778C9.04769 2.63086 7.42756 3.70171 4.28902 5.82031C3.82915 6.13609 3.41261 6.28995 3.03941 6.28189C2.62799 6.273 1.83657 6.04926 1.24824 5.85802C0.526618 5.62345 -0.0469098 5.49943 0.00303158 5.10106C0.0290441 4.89357 0.314786 4.68136 0.860258 4.46444Z" fill="black"/>
</svg>
