<svg width="13" height="13" viewBox="0 0 13 13" fill="none" xmlns="http://www.w3.org/2000/svg">
<path fill-rule="evenodd" clip-rule="evenodd" d="M1.10342 6.11679C4.46256 4.65327 6.70251 3.68842 7.82328 3.22226C11.0233 1.89127 11.6882 1.66006 12.1216 1.65243C12.2169 1.65075 12.4301 1.67437 12.5681 1.78639C12.6847 1.88098 12.7168 2.00876 12.7321 2.09845C12.7475 2.18813 12.7666 2.39243 12.7514 2.55206C12.578 4.37409 11.8276 8.79567 11.4459 10.8364C11.2844 11.6999 10.9663 11.9894 10.6584 12.0177C9.98928 12.0793 9.48116 11.5755 8.83305 11.1507C7.81889 10.4859 7.24595 10.072 6.26154 9.42333C5.12387 8.67362 5.86137 8.26157 6.50973 7.58817C6.6794 7.41194 9.6277 4.73024 9.68477 4.48696C9.6919 4.45654 9.69853 4.34313 9.63115 4.28324C9.56378 4.22336 9.46433 4.24383 9.39258 4.26012C9.29086 4.28321 7.67073 5.35405 4.53218 7.47266C4.07231 7.78844 3.65578 7.9423 3.28258 7.93423C2.87115 7.92534 2.07974 7.70161 1.4914 7.51036C0.769782 7.27579 0.196254 7.15178 0.246196 6.75341C0.272208 6.54591 0.55795 6.3337 1.10342 6.11679Z" fill="#B33E00"/>
</svg>
