<svg width="131" height="129" viewBox="0 0 131 129" fill="none" xmlns="http://www.w3.org/2000/svg">
<path d="M127 96.5176L127 112C127 120.836 119.837 128 111 128L20.2947 128C11.4582 128 4.29474 120.836 4.29474 112L4.29474 96.5176" stroke="#FF5A00" stroke-width="1.5" stroke-linecap="round" stroke-dasharray="4 4"/>
<path d="M5.01457 95.4525L8.14236 100.484C8.51709 101.087 8.16107 101.864 7.51433 101.984C7.40064 102.005 7.28474 101.98 7.17597 101.941L4.29489 100.902L1.41381 101.941C1.30504 101.98 1.18914 102.005 1.07546 101.984C0.437866 101.866 0.0800916 101.107 0.435148 100.505L3.39831 95.4728C3.76428 94.8513 4.6341 94.8404 5.01457 95.4525Z" fill="#FF5A00"/>
<path d="M127 4V93" stroke="#FF5A00" stroke-width="1.5" stroke-linecap="round" stroke-dasharray="4 4"/>
<path d="M127 1.5C128.381 1.5 129.5 2.61929 129.5 4C129.5 5.38071 128.381 6.5 127 6.5C125.619 6.5 124.5 5.38071 124.5 4C124.5 2.61929 125.619 1.5 127 1.5Z" fill="white" stroke="#FF5A00" stroke-width="3"/>
</svg>
