<svg width="188" height="26" viewBox="0 0 188 26" fill="none" xmlns="http://www.w3.org/2000/svg">
<path opacity="0.5" d="M16.516 25V26H17.2024L17.4491 25.3595L16.516 25ZM25.768 0.987998L26.7011 1.34754L27.225 -0.012002H25.768V0.987998ZM19.936 0.987998V-0.012002H19.2323L18.9947 0.650383L19.936 0.987998ZM13.312 19.456L12.3713 19.7952L13.3146 22.4108L14.2533 19.7936L13.312 19.456ZM6.652 0.987998L7.5927 0.648759L7.35441 -0.012002H6.652V0.987998ZM0.82 0.987998V-0.012002H-0.63901L-0.112659 1.34876L0.82 0.987998ZM10.108 25L9.17534 25.3608L9.4226 26H10.108V25ZM17.4491 25.3595L26.7011 1.34754L24.8349 0.628457L15.5829 24.6405L17.4491 25.3595ZM25.768 -0.012002H19.936V1.988H25.768V-0.012002ZM18.9947 0.650383L12.3707 19.1184L14.2533 19.7936L20.8773 1.32561L18.9947 0.650383ZM14.2527 19.1168L7.5927 0.648759L5.7113 1.32724L12.3713 19.7952L14.2527 19.1168ZM6.652 -0.012002H0.82V1.988H6.652V-0.012002ZM-0.112659 1.34876L9.17534 25.3608L11.0407 24.6392L1.75266 0.627239L-0.112659 1.34876ZM10.108 26H16.516V24H10.108V26ZM48.6899 25V26H50.1468L49.623 24.6405L48.6899 25ZM39.4379 0.987998L40.371 0.628457L40.1242 -0.012002H39.4379V0.987998ZM33.0299 0.987998V-0.012002H32.3445L32.0972 0.627239L33.0299 0.987998ZM23.7419 25L22.8092 24.6392L22.2829 26H23.7419V25ZM29.5739 25V26H30.269L30.5112 25.3484L29.5739 25ZM31.0859 20.932V19.932H30.3907L30.1485 20.5836L31.0859 20.932ZM41.3819 20.932L42.3219 20.5909L42.0828 19.932H41.3819V20.932ZM42.8579 25L41.9178 25.3411L42.1569 26H42.8579V25ZM39.9779 16.432V17.432H41.4039L40.9181 16.0913L39.9779 16.432ZM32.4899 16.432L31.5497 16.0913L31.0639 17.432H32.4899V16.432ZM36.2339 6.1L37.1741 5.75931L36.2339 3.16479L35.2937 5.75931L36.2339 6.1ZM49.623 24.6405L40.371 0.628457L38.5047 1.34754L47.7567 25.3595L49.623 24.6405ZM39.4379 -0.012002H33.0299V1.988H39.4379V-0.012002ZM32.0972 0.627239L22.8092 24.6392L24.6745 25.3608L33.9625 1.34876L32.0972 0.627239ZM23.7419 26H29.5739V24H23.7419V26ZM30.5112 25.3484L32.0232 21.2804L30.1485 20.5836L28.6365 24.6516L30.5112 25.3484ZM31.0859 21.932H41.3819V19.932H31.0859V21.932ZM40.4418 21.2731L41.9178 25.3411L43.7979 24.6589L42.3219 20.5909L40.4418 21.2731ZM42.8579 26H48.6899V24H42.8579V26ZM39.9779 15.432H32.4899V17.432H39.9779V15.432ZM33.4301 16.7727L37.1741 6.44069L35.2937 5.75931L31.5497 16.0913L33.4301 16.7727ZM35.2937 6.44069L39.0377 16.7727L40.9181 16.0913L37.1741 5.75931L35.2937 6.44069ZM66.1713 25V26H67.1713V25H66.1713ZM66.1713 20.5H67.1713V19.5H66.1713V20.5ZM56.0193 20.5H55.0193V21.5H56.0193V20.5ZM56.0193 0.987998H57.0193V-0.012002H56.0193V0.987998ZM50.9072 0.987998V-0.012002H49.9072V0.987998H50.9072ZM50.9072 25H49.9072V26H50.9072V25ZM67.1713 25V20.5H65.1713V25H67.1713ZM66.1713 19.5H56.0193V21.5H66.1713V19.5ZM57.0193 20.5V0.987998H55.0193V20.5H57.0193ZM56.0193 -0.012002H50.9072V1.988H56.0193V-0.012002ZM49.9072 0.987998V25H51.9072V0.987998H49.9072ZM50.9072 26H66.1713V24H50.9072V26ZM80.1426 26.432C87.9535 26.432 93.7066 20.8136 93.7066 13.012H91.7066C91.7066 19.6824 86.8758 24.432 80.1426 24.432V26.432ZM93.7066 13.012C93.7066 5.21036 87.9535 -0.408001 80.1426 -0.408001V1.592C86.8758 1.592 91.7066 6.34164 91.7066 13.012H93.7066ZM80.1426 -0.408001C72.3659 -0.408001 66.6146 5.21225 66.6146 13.012H68.6146C68.6146 6.33975 73.4474 1.592 80.1426 1.592V-0.408001ZM66.6146 13.012C66.6146 20.8117 72.3659 26.432 80.1426 26.432V24.432C73.4474 24.432 68.6146 19.6843 68.6146 13.012H66.6146ZM80.1426 19.896C78.2031 19.896 76.6596 19.1548 75.5913 17.9611C74.5136 16.7569 73.8706 15.0343 73.8706 13.012H71.8706C71.8706 15.4537 72.6496 17.6731 74.1009 19.2949C75.5617 20.9272 77.6541 21.896 80.1426 21.896V19.896ZM73.8706 13.012C73.8706 10.9702 74.5145 9.24882 75.5902 8.05054C76.6567 6.86259 78.1998 6.128 80.1426 6.128V4.128C77.6574 4.128 75.5645 5.0854 74.102 6.71445C72.6488 8.33318 71.8706 10.5538 71.8706 13.012H73.8706ZM80.1426 6.128C82.0861 6.128 83.6394 6.86319 84.7154 8.05316C85.7998 9.25256 86.4506 10.9735 86.4506 13.012H88.4506C88.4506 10.5505 87.6615 8.32944 86.1989 6.71183C84.7278 5.0848 82.6272 4.128 80.1426 4.128V6.128ZM86.4506 13.012C86.4506 15.031 85.8007 16.7532 84.7143 17.9585C83.6366 19.1542 82.0828 19.896 80.1426 19.896V21.896C82.6305 21.896 84.7306 20.9278 86.1999 19.2975C87.6606 17.6768 88.4506 15.457 88.4506 13.012H86.4506ZM115.734 25V26H117.486L116.595 24.4915L115.734 25ZM110.334 15.856L110.104 14.8828L108.782 15.1949L109.473 16.3645L110.334 15.856ZM96.294 0.987998V-0.012002H95.294V0.987998H96.294ZM96.294 25H95.294V26H96.294V25ZM101.406 25V26H102.406V25H101.406ZM101.406 16.468V15.468H100.406V16.468H101.406ZM105.15 16.468L106.025 15.9842L105.74 15.468H105.15V16.468ZM109.866 25L108.991 25.4838L109.276 26H109.866V25ZM101.406 11.968H100.406V12.968H101.406V11.968ZM101.406 5.488V4.488H100.406V5.488H101.406ZM116.595 24.4915L111.195 15.3475L109.473 16.3645L114.873 25.5085L116.595 24.4915ZM110.564 16.8292C113.555 16.123 116.59 13.4913 116.59 8.728H114.59C114.59 12.4607 112.297 14.365 110.104 14.8828L110.564 16.8292ZM116.59 8.728C116.59 6.26301 115.741 4.06085 114.138 2.47345C112.534 0.88481 110.252 -0.012002 107.526 -0.012002V1.988C109.804 1.988 111.554 2.72919 112.731 3.89455C113.909 5.06114 114.59 6.72899 114.59 8.728H116.59ZM107.526 -0.012002H96.294V1.988H107.526V-0.012002ZM95.294 0.987998V25H97.294V0.987998H95.294ZM96.294 26H101.406V24H96.294V26ZM102.406 25V16.468H100.406V25H102.406ZM101.406 17.468H105.15V15.468H101.406V17.468ZM104.275 16.9518L108.991 25.4838L110.741 24.5162L106.025 15.9842L104.275 16.9518ZM109.866 26H115.734V24H109.866V26ZM106.77 10.968H101.406V12.968H106.77V10.968ZM102.406 11.968V5.488H100.406V11.968H102.406ZM101.406 6.488H106.77V4.488H101.406V6.488ZM106.77 6.488C107.603 6.488 108.256 6.73568 108.684 7.10751C109.098 7.46645 109.37 7.9957 109.37 8.728H111.37C111.37 7.4443 110.868 6.35355 109.995 5.59648C109.136 4.85231 107.989 4.488 106.77 4.488V6.488ZM109.37 8.728C109.37 9.4603 109.098 9.98955 108.684 10.3485C108.256 10.7203 107.603 10.968 106.77 10.968V12.968C107.989 12.968 109.136 12.6037 109.995 11.8595C110.868 11.1025 111.37 10.0117 111.37 8.728H109.37ZM141.819 25V26H143.276L142.752 24.6405L141.819 25ZM132.567 0.987998L133.5 0.628457L133.253 -0.012002H132.567V0.987998ZM126.159 0.987998V-0.012002H125.473L125.226 0.627239L126.159 0.987998ZM116.871 25L115.938 24.6392L115.412 26H116.871V25ZM122.703 25V26H123.398L123.64 25.3484L122.703 25ZM124.215 20.932V19.932H123.52L123.277 20.5836L124.215 20.932ZM134.511 20.932L135.451 20.5909L135.212 19.932H134.511V20.932ZM135.987 25L135.047 25.3411L135.286 26H135.987V25ZM133.107 16.432V17.432H134.533L134.047 16.0913L133.107 16.432ZM125.619 16.432L124.679 16.0913L124.193 17.432H125.619V16.432ZM129.363 6.1L130.303 5.75931L129.363 3.16479L128.423 5.75931L129.363 6.1ZM142.752 24.6405L133.5 0.628457L131.634 1.34754L140.886 25.3595L142.752 24.6405ZM132.567 -0.012002H126.159V1.988H132.567V-0.012002ZM125.226 0.627239L115.938 24.6392L117.803 25.3608L127.091 1.34876L125.226 0.627239ZM116.871 26H122.703V24H116.871V26ZM123.64 25.3484L125.152 21.2804L123.277 20.5836L121.765 24.6516L123.64 25.3484ZM124.215 21.932H134.511V19.932H124.215V21.932ZM133.571 21.2731L135.047 25.3411L136.927 24.6589L135.451 20.5909L133.571 21.2731ZM135.987 26H141.819V24H135.987V26ZM133.107 15.432H125.619V17.432H133.107V15.432ZM126.559 16.7727L130.303 6.44069L128.423 5.75931L124.679 16.0913L126.559 16.7727ZM128.423 6.44069L132.167 16.7727L134.047 16.0913L130.303 5.75931L128.423 6.44069ZM165.528 25V26H166.528V25H165.528ZM165.528 0.987998H166.528V-0.012002H165.528V0.987998ZM160.416 0.987998V-0.012002H159.416V0.987998H160.416ZM160.416 16.072L159.611 16.6655L161.416 19.1128V16.072H160.416ZM149.292 0.987998L150.097 0.394471L149.797 -0.012002H149.292V0.987998ZM144.036 0.987998V-0.012002H143.036V0.987998H144.036ZM144.036 25H143.036V26H144.036V25ZM149.148 25V26H150.148V25H149.148ZM149.148 9.34L149.955 8.74984L148.148 6.27761V9.34H149.148ZM160.596 25L159.789 25.5902L160.088 26H160.596V25ZM166.528 25V0.987998H164.528V25H166.528ZM165.528 -0.012002H160.416V1.988H165.528V-0.012002ZM159.416 0.987998V16.072H161.416V0.987998H159.416ZM161.221 15.4785L150.097 0.394471L148.487 1.58152L159.611 16.6655L161.221 15.4785ZM149.292 -0.012002H144.036V1.988H149.292V-0.012002ZM143.036 0.987998V25H145.036V0.987998H143.036ZM144.036 26H149.148V24H144.036V26ZM150.148 25V9.34H148.148V25H150.148ZM148.341 9.93016L159.789 25.5902L161.403 24.4098L149.955 8.74984L148.341 9.93016ZM160.596 26H165.528V24H160.596V26ZM180.955 25V26H181.955V25H180.955ZM180.955 5.488V4.488H179.955V5.488H180.955ZM187.939 5.488V6.488H188.939V5.488H187.939ZM187.939 0.987998H188.939V-0.012002H187.939V0.987998ZM168.787 0.987998V-0.012002H167.787V0.987998H168.787ZM168.787 5.488H167.787V6.488H168.787V5.488ZM175.807 5.488H176.807V4.488H175.807V5.488ZM175.807 25H174.807V26H175.807V25ZM181.955 25V5.488H179.955V25H181.955ZM180.955 6.488H187.939V4.488H180.955V6.488ZM188.939 5.488V0.987998H186.939V5.488H188.939ZM187.939 -0.012002H168.787V1.988H187.939V-0.012002ZM167.787 0.987998V5.488H169.787V0.987998H167.787ZM168.787 6.488H175.807V4.488H168.787V6.488ZM174.807 5.488V25H176.807V5.488H174.807ZM175.807 26H180.955V24H175.807V26Z" fill="#FCFCFC"/>
</svg>
