<svg width="27" height="18" viewBox="0 0 27 18" fill="none" xmlns="http://www.w3.org/2000/svg">
<path fill-rule="evenodd" clip-rule="evenodd" d="M26.3805 1.21893C26.3805 1.21884 26.3805 1.21874 26.3806 1.21866C26.5683 0.516251 26.3805 0 25.4872 0H22.5334C21.9106 0 21.5663 0.306603 21.3598 0.691781C21.2747 0.850593 21.2184 1.0206 21.1532 1.18856C20.7915 2.11954 19.4322 5.44178 17.6182 7.7175C16.9298 8.49032 16.6169 8.73592 16.2413 8.73592C16.0536 8.73592 15.7818 8.49032 15.7818 7.78784V1.21879C15.7818 0.375632 15.5639 0 14.9379 0H10.2962C9.82692 0 9.54462 0.391264 9.54462 0.762158C9.54462 1.5615 10.6084 1.74576 10.7181 3.99387V8.87684C10.7181 9.94737 10.546 10.1416 10.1704 10.1416C9.16906 10.1416 6.73343 6.01295 5.28859 1.28913C5.00545 0.370895 4.72146 0 3.96655 0H1.01274C0.168789 0 0 0.445974 0 0.937895C0 1.81611 1.00155 6.17211 4.66281 11.9331C7.10392 15.867 10.5426 18 13.6719 18C15.5497 18 15.7818 17.5263 15.7818 16.7104V13.7368C15.7818 12.7895 15.9597 12.6005 16.554 12.6005C16.9925 12.6005 17.7434 12.8463 19.496 14.7432C21.4987 16.9911 21.8287 18 22.9554 18H25.9092C26.7531 18 27.1751 17.5263 26.9316 16.5915C26.6653 15.6598 25.7092 14.3083 24.4403 12.7059C23.7518 11.7924 22.7191 10.8088 22.4064 10.3171C22.2767 10.13 22.1964 9.9737 22.1556 9.83178C21.9619 9.15715 22.5942 8.54675 22.9595 7.94736C23.9836 6.26652 26.0974 2.6754 26.3805 1.21912C26.3805 1.21905 26.3805 1.21899 26.3805 1.21893Z" fill="#FF5A00"/>
</svg>
