<svg width="22" height="16" viewBox="0 0 22 16" fill="none" xmlns="http://www.w3.org/2000/svg">
<path d="M21.5469 2.4102C21.2932 1.46787 20.5502 0.724873 19.6078 0.471168C17.8862 0 11 0 11 0C11 0 4.11366 0 2.39208 0.453046C1.46787 0.706751 0.706751 1.46787 0.453046 2.4102C0 4.13178 0 7.70178 0 7.70178C0 7.70178 0 11.2899 0.453046 12.9934C0.706751 13.9357 1.44975 14.6787 2.39208 14.9324C4.13178 15.4036 11 15.4036 11 15.4036C11 15.4036 17.8862 15.4036 19.6078 14.9505C20.5502 14.6968 21.2932 13.9538 21.5469 13.0115C21.9999 11.2899 21.9999 7.7199 21.9999 7.7199C21.9999 7.7199 22.018 4.13178 21.5469 2.4102Z" fill="#B33E00"/>
<path d="M8.80664 10.9997L14.5331 7.70149L8.80664 4.40332V10.9997Z" fill="#FCFCFC"/>
</svg>
