<svg width="22" height="16" viewBox="0 0 22 16" fill="none" xmlns="http://www.w3.org/2000/svg">
<path d="M21.5469 2.71001C21.2932 1.76767 20.5502 1.02468 19.6078 0.770972C17.8862 0.299805 11 0.299805 11 0.299805C11 0.299805 4.11366 0.299805 2.39208 0.75285C1.46787 1.00656 0.706751 1.76767 0.453046 2.71001C0 4.43158 0 8.00158 0 8.00158C0 8.00158 0 11.5897 0.453046 13.2932C0.706751 14.2355 1.44975 14.9785 2.39208 15.2322C4.13178 15.7034 11 15.7034 11 15.7034C11 15.7034 17.8862 15.7034 19.6078 15.2503C20.5502 14.9966 21.2932 14.2536 21.5469 13.3113C21.9999 11.5897 21.9999 8.0197 21.9999 8.0197C21.9999 8.0197 22.018 4.43158 21.5469 2.71001Z" fill="#FF5A00"/>
<path d="M8.80664 11.2995L14.5331 8.0013L8.80664 4.70312V11.2995Z" fill="#FCFCFC"/>
</svg>
